<svg xmlns="http://www.w3.org/2000/svg" xmlns:xlink="http://www.w3.org/1999/xlink" width="576" zoomAndPan="magnify" viewBox="0 0 432 364.499989" height="486" preserveAspectRatio="xMidYMid meet" version="1.0"><defs><g/><clipPath id="6a9590883d"><path d="M 39 88.648438 L 393 88.648438 L 393 327.570312 L 39 327.570312 Z M 39 88.648438 " clip-rule="nonzero"/></clipPath><clipPath id="4c39c0c799"><path d="M 38.996094 88.648438 L 393.261719 88.648438 L 393.261719 327.570312 L 38.996094 327.570312 Z M 38.996094 88.648438 " clip-rule="nonzero"/></clipPath></defs><path fill="#c57000" d="M 41.699219 309.90625 C 41.425781 309.90625 41.246094 309.636719 41.246094 309.367188 L 41.425781 308.019531 C 41.425781 307.75 41.699219 307.570312 41.96875 307.660156 C 42.238281 307.660156 42.417969 307.929688 42.328125 308.199219 L 42.148438 309.546875 C 42.148438 309.726562 41.96875 309.90625 41.699219 309.90625 Z M 41.699219 309.90625 " fill-opacity="1" fill-rule="nonzero"/><path fill="#c57000" d="M 42.328125 305.859375 C 41.96875 305.769531 41.878906 305.589844 41.878906 305.320312 C 42.058594 304.421875 42.148438 303.523438 42.328125 302.625 C 42.328125 302.351562 42.597656 302.171875 42.867188 302.261719 C 43.136719 302.261719 43.316406 302.535156 43.226562 302.804688 C 43.046875 303.703125 42.957031 304.601562 42.777344 305.5 C 42.777344 305.769531 42.597656 305.859375 42.328125 305.859375 Z M 43.226562 300.554688 C 42.867188 300.464844 42.777344 300.285156 42.777344 300.015625 C 42.957031 299.117188 43.136719 298.214844 43.316406 297.316406 C 43.40625 297.046875 43.585938 296.957031 43.859375 296.957031 C 44.128906 297.046875 44.21875 297.226562 44.21875 297.496094 C 44.039062 298.398438 43.859375 299.296875 43.675781 300.105469 C 43.675781 300.464844 43.496094 300.554688 43.226562 300.554688 Z M 44.308594 295.25 C 44.308594 295.25 44.21875 295.25 44.21875 295.25 C 43.949219 295.160156 43.859375 294.980469 43.859375 294.710938 C 44.039062 293.808594 44.21875 292.910156 44.398438 292.101562 C 44.488281 291.832031 44.667969 291.742188 44.9375 291.742188 C 45.207031 291.832031 45.296875 292.011719 45.296875 292.28125 C 45.117188 293.179688 44.9375 294.078125 44.757812 294.890625 C 44.667969 295.160156 44.488281 295.25 44.308594 295.25 Z M 45.386719 290.03125 C 45.386719 290.03125 45.296875 290.03125 45.296875 290.03125 C 45.027344 289.941406 44.9375 289.761719 44.9375 289.492188 C 45.117188 288.59375 45.386719 287.695312 45.566406 286.886719 C 45.65625 286.617188 45.835938 286.527344 46.109375 286.527344 C 46.378906 286.617188 46.46875 286.796875 46.46875 287.066406 C 46.289062 287.964844 46.019531 288.773438 45.835938 289.671875 C 45.835938 289.851562 45.65625 290.03125 45.386719 290.03125 Z M 46.648438 284.726562 C 46.648438 284.726562 46.558594 284.726562 46.558594 284.726562 C 46.289062 284.636719 46.199219 284.457031 46.199219 284.1875 C 46.378906 283.289062 46.648438 282.480469 46.917969 281.578125 C 47.007812 281.308594 47.1875 281.21875 47.457031 281.21875 C 47.726562 281.308594 47.816406 281.488281 47.816406 281.757812 C 47.546875 282.660156 47.367188 283.46875 47.097656 284.367188 C 47.097656 284.636719 46.917969 284.726562 46.648438 284.726562 Z M 48.085938 279.511719 C 48.085938 279.511719 47.996094 279.511719 47.996094 279.511719 C 47.726562 279.421875 47.636719 279.152344 47.726562 278.972656 C 47.996094 278.074219 48.269531 277.261719 48.539062 276.363281 C 48.628906 276.09375 48.898438 276.003906 49.078125 276.09375 C 49.347656 276.183594 49.4375 276.453125 49.347656 276.632812 C 49.078125 277.53125 48.808594 278.34375 48.628906 279.242188 C 48.449219 279.421875 48.269531 279.511719 48.085938 279.511719 Z M 49.707031 274.386719 C 49.617188 274.386719 49.617188 274.386719 49.527344 274.386719 C 49.257812 274.296875 49.167969 274.027344 49.257812 273.847656 C 49.527344 272.945312 49.796875 272.136719 50.066406 271.238281 C 50.15625 270.96875 50.429688 270.878906 50.609375 270.96875 C 50.878906 271.058594 50.96875 271.328125 50.878906 271.507812 C 50.609375 272.316406 50.339844 273.214844 50.066406 274.027344 C 50.066406 274.207031 49.886719 274.386719 49.707031 274.386719 Z M 51.417969 269.257812 C 51.328125 269.257812 51.328125 269.257812 51.238281 269.257812 C 50.96875 269.167969 50.878906 268.898438 50.96875 268.71875 C 51.238281 267.910156 51.597656 267.011719 51.867188 266.203125 C 51.957031 265.933594 52.226562 265.84375 52.40625 265.933594 C 52.679688 266.023438 52.769531 266.292969 52.679688 266.472656 C 52.316406 267.28125 52.046875 268.179688 51.777344 268.988281 C 51.777344 269.167969 51.597656 269.257812 51.417969 269.257812 Z M 53.308594 264.222656 C 53.21875 264.222656 53.21875 264.222656 53.128906 264.222656 C 52.859375 264.132812 52.769531 263.863281 52.859375 263.59375 C 53.21875 262.785156 53.578125 261.886719 53.847656 261.074219 C 53.9375 260.804688 54.207031 260.714844 54.476562 260.804688 C 54.75 260.894531 54.839844 261.164062 54.75 261.4375 C 54.386719 262.246094 54.027344 263.054688 53.757812 263.953125 C 53.667969 264.042969 53.488281 264.222656 53.308594 264.222656 Z M 55.378906 259.1875 C 55.289062 259.1875 55.289062 259.1875 55.199219 259.1875 C 54.929688 259.097656 54.839844 258.828125 54.929688 258.558594 C 55.289062 257.75 55.648438 256.9375 56.007812 256.128906 C 56.097656 255.949219 56.367188 255.769531 56.636719 255.949219 C 56.816406 256.039062 57 256.308594 56.816406 256.578125 C 56.457031 257.390625 56.097656 258.199219 55.738281 259.007812 C 55.738281 259.097656 55.558594 259.1875 55.378906 259.1875 Z M 57.71875 254.332031 C 57.628906 254.332031 57.628906 254.332031 57.539062 254.242188 C 57.359375 254.152344 57.269531 253.882812 57.359375 253.613281 C 57.71875 252.800781 58.167969 251.992188 58.617188 251.183594 C 58.707031 251.003906 58.976562 250.914062 59.25 251.003906 C 59.429688 251.09375 59.519531 251.363281 59.429688 251.632812 C 58.976562 252.441406 58.617188 253.253906 58.167969 254.0625 C 57.988281 254.242188 57.898438 254.332031 57.71875 254.332031 Z M 158.523438 252.171875 C 158.253906 252.171875 158.074219 251.992188 158.074219 251.722656 C 158.074219 251.453125 158.253906 251.273438 158.523438 251.273438 C 158.886719 251.273438 159.246094 251.183594 159.605469 251.183594 C 160.144531 251.09375 160.59375 251.09375 161.136719 251.003906 C 161.40625 251.003906 161.585938 251.09375 161.675781 251.363281 C 161.675781 251.632812 161.585938 251.8125 161.316406 251.902344 C 160.773438 251.992188 160.234375 252.082031 159.695312 252.082031 C 159.335938 252.171875 158.886719 252.171875 158.523438 252.171875 Z M 155.824219 252.171875 C 154.925781 252.082031 153.933594 251.992188 153.035156 251.8125 C 152.765625 251.8125 152.585938 251.542969 152.675781 251.273438 C 152.675781 251.003906 152.945312 250.824219 153.214844 250.914062 C 154.113281 251.09375 155.015625 251.183594 155.824219 251.273438 C 156.09375 251.273438 156.273438 251.542969 156.273438 251.722656 C 156.273438 251.992188 156.09375 252.171875 155.824219 252.171875 Z M 150.515625 251.273438 C 150.515625 251.273438 150.425781 251.273438 150.425781 251.273438 C 149.523438 251.003906 148.714844 250.734375 147.816406 250.375 C 147.542969 250.285156 147.453125 250.015625 147.542969 249.835938 C 147.632812 249.566406 147.90625 249.476562 148.085938 249.566406 C 148.894531 249.925781 149.792969 250.195312 150.605469 250.375 C 150.875 250.464844 150.964844 250.734375 150.875 250.914062 C 150.875 251.09375 150.695312 251.273438 150.515625 251.273438 Z M 163.835938 251.273438 C 163.65625 251.273438 163.476562 251.183594 163.386719 251.003906 C 163.296875 250.734375 163.476562 250.554688 163.65625 250.464844 C 164.464844 250.195312 165.277344 249.835938 166.085938 249.476562 C 166.355469 249.386719 166.535156 249.476562 166.714844 249.65625 C 166.804688 249.925781 166.714844 250.105469 166.535156 250.285156 C 165.726562 250.644531 164.824219 251.003906 163.925781 251.273438 C 163.925781 251.273438 163.835938 251.273438 163.835938 251.273438 Z M 60.148438 249.566406 C 60.058594 249.566406 59.96875 249.566406 59.96875 249.476562 C 59.789062 249.386719 59.699219 249.117188 59.789062 248.84375 C 60.238281 248.035156 60.6875 247.226562 61.136719 246.507812 C 61.230469 246.328125 61.5 246.238281 61.769531 246.328125 C 61.949219 246.417969 62.039062 246.6875 61.949219 246.957031 C 61.5 247.765625 61.046875 248.484375 60.597656 249.296875 C 60.507812 249.476562 60.328125 249.566406 60.148438 249.566406 Z M 145.472656 249.296875 C 145.382812 249.296875 145.292969 249.296875 145.292969 249.207031 C 144.484375 248.753906 143.675781 248.394531 142.863281 247.855469 C 142.683594 247.765625 142.59375 247.40625 142.683594 247.226562 C 142.773438 247.046875 143.132812 246.957031 143.3125 247.046875 C 144.035156 247.496094 144.84375 247.945312 145.65625 248.304688 C 145.835938 248.394531 145.925781 248.664062 145.835938 248.9375 C 145.835938 249.207031 145.65625 249.296875 145.472656 249.296875 Z M 168.695312 248.9375 C 168.515625 248.9375 168.425781 248.84375 168.335938 248.753906 C 168.246094 248.574219 168.246094 248.304688 168.515625 248.125 C 169.234375 247.675781 169.957031 247.136719 170.675781 246.597656 C 170.855469 246.417969 171.125 246.507812 171.304688 246.6875 C 171.484375 246.867188 171.394531 247.136719 171.214844 247.316406 C 170.496094 247.855469 169.777344 248.394531 168.964844 248.9375 C 168.875 248.9375 168.785156 248.9375 168.695312 248.9375 Z M 140.882812 246.417969 C 140.792969 246.417969 140.703125 246.417969 140.613281 246.328125 C 139.894531 245.789062 139.175781 245.25 138.453125 244.617188 C 138.273438 244.4375 138.273438 244.167969 138.453125 243.988281 C 138.632812 243.808594 138.902344 243.808594 139.082031 243.988281 C 139.714844 244.617188 140.433594 245.160156 141.152344 245.699219 C 141.335938 245.878906 141.425781 246.148438 141.242188 246.328125 C 141.152344 246.417969 140.972656 246.417969 140.882812 246.417969 Z M 172.925781 245.609375 C 172.835938 245.609375 172.746094 245.609375 172.65625 245.519531 C 172.476562 245.339844 172.476562 245.070312 172.65625 244.890625 C 173.285156 244.257812 173.828125 243.539062 174.367188 242.910156 C 174.546875 242.730469 174.816406 242.640625 174.996094 242.820312 C 175.175781 243 175.265625 243.269531 175.085938 243.449219 C 174.546875 244.167969 173.917969 244.890625 173.285156 245.519531 C 173.105469 245.519531 173.015625 245.609375 172.925781 245.609375 Z M 62.9375 244.890625 C 62.847656 244.890625 62.757812 244.890625 62.667969 244.800781 C 62.488281 244.707031 62.398438 244.347656 62.488281 244.167969 C 62.9375 243.359375 63.480469 242.640625 63.929688 241.832031 C 64.109375 241.652344 64.378906 241.5625 64.558594 241.742188 C 64.738281 241.921875 64.828125 242.191406 64.648438 242.371094 C 64.199219 243.089844 63.660156 243.898438 63.207031 244.617188 C 63.207031 244.800781 63.027344 244.890625 62.9375 244.890625 Z M 136.832031 242.910156 C 136.742188 242.910156 136.5625 242.820312 136.472656 242.730469 C 136.113281 242.371094 135.753906 241.921875 135.394531 241.472656 C 135.125 241.203125 134.945312 240.933594 134.671875 240.664062 C 134.492188 240.480469 134.582031 240.210938 134.761719 240.03125 C 134.945312 239.851562 135.214844 239.941406 135.394531 240.121094 C 135.574219 240.390625 135.84375 240.664062 136.113281 240.933594 C 136.472656 241.292969 136.832031 241.742188 137.195312 242.101562 C 137.375 242.28125 137.375 242.550781 137.195312 242.730469 C 137.015625 242.820312 136.921875 242.910156 136.832031 242.910156 Z M 176.078125 241.203125 C 175.988281 241.203125 175.894531 241.203125 175.894531 241.113281 C 175.714844 241.023438 175.625 240.753906 175.714844 240.480469 C 176.167969 239.671875 176.527344 238.863281 176.796875 238.054688 C 176.886719 237.785156 177.15625 237.695312 177.335938 237.785156 C 177.605469 237.875 177.695312 238.144531 177.605469 238.324219 C 177.335938 239.222656 176.976562 240.03125 176.527344 240.84375 C 176.4375 241.203125 176.257812 241.203125 176.078125 241.203125 Z M 65.820312 240.300781 C 65.730469 240.300781 65.640625 240.300781 65.550781 240.210938 C 65.367188 240.03125 65.277344 239.761719 65.457031 239.582031 C 66 238.863281 66.449219 238.054688 66.988281 237.335938 C 67.167969 237.15625 67.4375 237.066406 67.617188 237.246094 C 67.800781 237.425781 67.890625 237.695312 67.710938 237.875 C 67.167969 238.59375 66.628906 239.3125 66.179688 240.03125 C 66.089844 240.210938 66 240.300781 65.820312 240.300781 Z M 133.414062 238.773438 C 133.234375 238.773438 133.144531 238.683594 133.054688 238.59375 C 132.511719 237.875 132.0625 237.066406 131.523438 236.253906 C 131.433594 236.074219 131.433594 235.804688 131.703125 235.625 C 131.882812 235.535156 132.152344 235.535156 132.332031 235.804688 C 132.785156 236.617188 133.324219 237.335938 133.773438 238.054688 C 133.953125 238.234375 133.863281 238.503906 133.683594 238.683594 C 133.59375 238.683594 133.503906 238.773438 133.414062 238.773438 Z M 177.875 236.164062 C 177.785156 236.164062 177.785156 236.164062 177.875 236.164062 C 177.515625 236.074219 177.425781 235.894531 177.425781 235.625 C 177.515625 235.265625 177.515625 234.90625 177.605469 234.546875 C 177.695312 234.007812 177.695312 233.558594 177.695312 233.019531 C 177.695312 232.75 177.875 232.570312 178.148438 232.570312 C 178.417969 232.570312 178.597656 232.75 178.597656 233.019531 C 178.597656 233.558594 178.597656 234.097656 178.507812 234.636719 C 178.507812 234.996094 178.417969 235.445312 178.328125 235.804688 C 178.238281 235.984375 178.054688 236.164062 177.875 236.164062 Z M 68.96875 235.894531 C 68.878906 235.894531 68.789062 235.894531 68.699219 235.804688 C 68.519531 235.625 68.429688 235.355469 68.609375 235.175781 C 69.148438 234.457031 69.6875 233.738281 70.320312 233.019531 C 70.5 232.839844 70.769531 232.839844 70.949219 232.929688 C 71.128906 233.109375 71.21875 233.378906 71.039062 233.558594 C 70.5 234.277344 69.960938 234.996094 69.417969 235.714844 C 69.238281 235.894531 69.148438 235.894531 68.96875 235.894531 Z M 130.625 234.097656 C 130.441406 234.097656 130.261719 234.007812 130.261719 233.828125 C 129.902344 233.019531 129.453125 232.207031 129.09375 231.308594 C 129.003906 231.039062 129.09375 230.859375 129.363281 230.679688 C 129.632812 230.589844 129.8125 230.679688 129.992188 230.949219 C 130.351562 231.757812 130.714844 232.570312 131.074219 233.378906 C 131.164062 233.558594 131.074219 233.828125 130.894531 234.007812 C 130.714844 234.097656 130.714844 234.097656 130.625 234.097656 Z M 72.390625 231.757812 C 72.300781 231.757812 72.210938 231.757812 72.121094 231.667969 C 71.9375 231.488281 71.9375 231.21875 72.03125 231.039062 C 72.570312 230.320312 73.199219 229.691406 73.828125 228.972656 C 74.007812 228.792969 74.28125 228.792969 74.460938 228.972656 C 74.640625 229.152344 74.640625 229.421875 74.460938 229.601562 C 73.828125 230.230469 73.289062 230.949219 72.660156 231.667969 C 72.660156 231.667969 72.480469 231.757812 72.390625 231.757812 Z M 177.875 230.769531 C 177.695312 230.769531 177.425781 230.589844 177.425781 230.410156 C 177.335938 229.601562 177.15625 228.703125 176.886719 227.800781 C 176.796875 227.53125 176.976562 227.351562 177.15625 227.261719 C 177.425781 227.171875 177.605469 227.351562 177.695312 227.53125 C 177.964844 228.433594 178.148438 229.332031 178.328125 230.230469 C 178.417969 230.5 178.238281 230.769531 177.875 230.769531 C 177.964844 230.769531 177.875 230.769531 177.875 230.769531 Z M 128.554688 229.152344 C 128.375 229.152344 128.191406 229.0625 128.101562 228.882812 C 127.832031 227.980469 127.5625 227.171875 127.292969 226.273438 C 127.203125 226.003906 127.382812 225.824219 127.652344 225.734375 C 127.921875 225.644531 128.101562 225.824219 128.191406 226.09375 C 128.375 226.992188 128.644531 227.800781 128.914062 228.613281 C 129.003906 228.882812 128.824219 229.0625 128.644531 229.152344 C 128.644531 229.0625 128.554688 229.152344 128.554688 229.152344 Z M 75.988281 227.710938 C 75.898438 227.710938 75.808594 227.710938 75.71875 227.621094 C 75.539062 227.441406 75.539062 227.171875 75.71875 226.992188 C 76.351562 226.363281 76.980469 225.644531 77.609375 225.015625 C 77.789062 224.835938 78.058594 224.835938 78.238281 225.015625 C 78.417969 225.195312 78.417969 225.464844 78.238281 225.644531 C 77.609375 226.273438 76.980469 226.902344 76.351562 227.621094 C 76.167969 227.621094 76.078125 227.710938 75.988281 227.710938 Z M 176.4375 225.644531 C 176.257812 225.644531 176.078125 225.554688 175.988281 225.375 C 175.625 224.566406 175.265625 223.753906 174.816406 223.035156 C 174.726562 222.855469 174.726562 222.585938 174.996094 222.40625 C 175.175781 222.316406 175.445312 222.316406 175.625 222.585938 C 176.078125 223.394531 176.527344 224.207031 176.886719 225.015625 C 176.976562 225.285156 176.886719 225.464844 176.617188 225.644531 C 176.527344 225.644531 176.4375 225.644531 176.4375 225.644531 Z M 127.203125 223.84375 C 127.023438 223.84375 126.84375 223.664062 126.753906 223.484375 C 126.574219 222.585938 126.394531 221.6875 126.304688 220.789062 C 126.304688 220.519531 126.484375 220.339844 126.664062 220.25 C 126.933594 220.25 127.113281 220.429688 127.203125 220.609375 C 127.292969 221.507812 127.472656 222.40625 127.652344 223.214844 C 127.652344 223.574219 127.472656 223.84375 127.203125 223.84375 Z M 79.769531 223.84375 C 79.679688 223.84375 79.5 223.753906 79.410156 223.664062 C 79.230469 223.484375 79.230469 223.214844 79.410156 223.035156 C 80.039062 222.40625 80.761719 221.777344 81.390625 221.238281 C 81.570312 221.058594 81.839844 221.058594 82.019531 221.238281 C 82.199219 221.417969 82.199219 221.6875 82.019531 221.867188 C 81.390625 222.496094 80.671875 223.035156 80.039062 223.664062 C 79.949219 223.84375 79.859375 223.84375 79.769531 223.84375 Z M 173.734375 220.96875 C 173.554688 220.96875 173.464844 220.878906 173.375 220.789062 C 172.835938 220.070312 172.296875 219.347656 171.757812 218.71875 C 171.574219 218.539062 171.574219 218.269531 171.847656 218.089844 C 172.027344 217.910156 172.296875 217.910156 172.476562 218.179688 C 173.105469 218.898438 173.644531 219.617188 174.1875 220.339844 C 174.367188 220.519531 174.277344 220.789062 174.097656 220.96875 C 173.917969 220.878906 173.828125 220.96875 173.734375 220.96875 Z M 83.820312 220.25 C 83.730469 220.25 83.550781 220.160156 83.460938 220.070312 C 83.28125 219.886719 83.28125 219.617188 83.550781 219.4375 C 84.269531 218.898438 84.898438 218.269531 85.621094 217.730469 C 85.800781 217.550781 86.070312 217.640625 86.25 217.820312 C 86.429688 218 86.339844 218.269531 86.160156 218.449219 C 85.441406 218.988281 84.71875 219.527344 84.089844 220.160156 C 84 220.25 83.910156 220.25 83.820312 220.25 Z M 126.484375 218.539062 C 126.214844 218.539062 126.03125 218.359375 126.03125 218.089844 C 125.941406 217.191406 125.941406 216.292969 125.941406 215.390625 C 125.941406 215.121094 126.121094 214.941406 126.394531 214.941406 C 126.664062 214.941406 126.84375 215.121094 126.84375 215.390625 C 126.84375 216.292969 126.84375 217.191406 126.933594 218.089844 C 126.933594 218.269531 126.753906 218.539062 126.484375 218.539062 Z M 88.050781 216.921875 C 87.871094 216.921875 87.78125 216.832031 87.691406 216.742188 C 87.511719 216.5625 87.601562 216.292969 87.78125 216.113281 C 88.5 215.570312 89.21875 215.03125 90.03125 214.492188 C 90.210938 214.3125 90.480469 214.402344 90.660156 214.582031 C 90.839844 214.761719 90.75 215.03125 90.570312 215.210938 C 89.851562 215.75 89.128906 216.203125 88.410156 216.742188 C 88.230469 216.832031 88.140625 216.921875 88.050781 216.921875 Z M 170.226562 216.832031 C 170.136719 216.832031 169.957031 216.832031 169.867188 216.742188 C 169.234375 216.113281 168.605469 215.480469 167.886719 214.941406 C 167.707031 214.761719 167.707031 214.492188 167.886719 214.3125 C 168.066406 214.132812 168.335938 214.132812 168.515625 214.3125 C 169.234375 214.941406 169.867188 215.570312 170.496094 216.203125 C 170.675781 216.382812 170.675781 216.652344 170.496094 216.832031 C 170.496094 216.742188 170.316406 216.832031 170.226562 216.832031 Z M 92.460938 213.773438 C 92.28125 213.773438 92.191406 213.683594 92.101562 213.59375 C 92.011719 213.414062 92.011719 213.144531 92.191406 212.964844 C 92.910156 212.515625 93.722656 211.976562 94.53125 211.523438 C 94.710938 211.433594 94.980469 211.433594 95.160156 211.703125 C 95.25 211.886719 95.25 212.15625 94.980469 212.335938 C 94.171875 212.785156 93.449219 213.234375 92.730469 213.773438 C 92.640625 213.773438 92.550781 213.773438 92.460938 213.773438 Z M 166.175781 213.234375 C 166.085938 213.234375 165.996094 213.234375 165.90625 213.144531 C 165.546875 212.875 165.1875 212.605469 164.824219 212.335938 C 164.464844 212.066406 164.105469 211.796875 163.746094 211.613281 C 163.566406 211.433594 163.476562 211.164062 163.65625 210.984375 C 163.835938 210.804688 164.105469 210.714844 164.285156 210.894531 C 164.644531 211.164062 165.003906 211.433594 165.367188 211.613281 C 165.726562 211.886719 166.085938 212.15625 166.445312 212.425781 C 166.625 212.605469 166.714844 212.875 166.535156 213.054688 C 166.445312 213.144531 166.265625 213.234375 166.175781 213.234375 Z M 126.484375 213.144531 C 126.394531 213.144531 126.394531 213.144531 126.484375 213.144531 C 126.214844 213.144531 126.03125 212.964844 126.03125 212.695312 C 126.03125 211.796875 126.121094 210.894531 126.214844 209.996094 C 126.214844 209.726562 126.484375 209.546875 126.664062 209.636719 C 126.933594 209.636719 127.113281 209.90625 127.023438 210.085938 C 126.933594 210.984375 126.84375 211.886719 126.84375 212.785156 C 126.84375 212.964844 126.664062 213.144531 126.484375 213.144531 Z M 97.140625 210.984375 C 96.960938 210.984375 96.871094 210.894531 96.78125 210.714844 C 96.691406 210.535156 96.78125 210.265625 96.960938 210.085938 C 97.769531 209.636719 98.582031 209.1875 99.390625 208.828125 C 99.570312 208.738281 99.839844 208.828125 100.019531 209.007812 C 100.109375 209.1875 100.019531 209.457031 99.839844 209.636719 C 99.03125 210.085938 98.222656 210.445312 97.5 210.894531 C 97.230469 210.984375 97.140625 210.984375 97.140625 210.984375 Z M 161.675781 210.265625 C 161.585938 210.265625 161.496094 210.265625 161.40625 210.175781 C 160.683594 209.726562 159.875 209.277344 159.066406 208.828125 C 158.886719 208.738281 158.796875 208.46875 158.886719 208.199219 C 158.976562 208.019531 159.246094 207.929688 159.515625 208.019531 C 160.324219 208.46875 161.136719 208.917969 161.855469 209.367188 C 162.035156 209.457031 162.125 209.726562 162.035156 209.996094 C 162.035156 210.175781 161.855469 210.265625 161.675781 210.265625 Z M 101.910156 208.558594 C 101.730469 208.558594 101.550781 208.46875 101.460938 208.289062 C 101.371094 208.019531 101.460938 207.839844 101.640625 207.660156 C 102.453125 207.296875 103.261719 206.9375 104.160156 206.578125 C 104.429688 206.488281 104.613281 206.578125 104.792969 206.847656 C 104.882812 207.117188 104.792969 207.296875 104.523438 207.476562 C 103.710938 207.839844 102.902344 208.199219 102.089844 208.558594 C 102 208.558594 102 208.558594 101.910156 208.558594 Z M 127.023438 207.75 C 126.933594 207.75 126.933594 207.75 127.023438 207.75 C 126.664062 207.75 126.574219 207.476562 126.574219 207.207031 C 126.753906 206.308594 126.84375 205.410156 127.023438 204.511719 C 127.113281 204.242188 127.292969 204.152344 127.5625 204.152344 C 127.832031 204.242188 127.921875 204.421875 127.921875 204.691406 C 127.742188 205.589844 127.5625 206.488281 127.472656 207.296875 C 127.382812 207.566406 127.203125 207.75 127.023438 207.75 Z M 156.90625 207.660156 C 156.816406 207.660156 156.816406 207.660156 156.726562 207.660156 C 155.914062 207.296875 155.105469 206.9375 154.296875 206.578125 C 154.023438 206.488281 153.933594 206.21875 154.023438 205.949219 C 154.113281 205.679688 154.386719 205.589844 154.65625 205.679688 C 155.464844 206.039062 156.363281 206.398438 157.175781 206.757812 C 157.355469 206.847656 157.535156 207.117188 157.355469 207.386719 C 157.265625 207.566406 157.085938 207.660156 156.90625 207.660156 Z M 106.863281 206.488281 C 106.683594 206.488281 106.5 206.398438 106.410156 206.21875 C 106.320312 205.949219 106.410156 205.769531 106.683594 205.679688 C 107.492188 205.320312 108.390625 205.050781 109.292969 204.78125 C 109.5625 204.691406 109.742188 204.871094 109.832031 205.050781 C 109.921875 205.320312 109.742188 205.5 109.5625 205.589844 C 108.75 205.859375 107.851562 206.128906 107.042969 206.488281 C 107.042969 206.488281 106.953125 206.488281 106.863281 206.488281 Z M 151.953125 205.589844 C 151.863281 205.589844 151.863281 205.589844 151.773438 205.589844 C 150.964844 205.320312 150.066406 205.050781 149.253906 204.78125 C 148.984375 204.691406 148.894531 204.421875 148.984375 204.242188 C 149.074219 203.972656 149.34375 203.882812 149.523438 203.972656 C 150.425781 204.242188 151.234375 204.511719 152.136719 204.871094 C 152.40625 204.960938 152.496094 205.230469 152.40625 205.410156 C 152.316406 205.5 152.136719 205.589844 151.953125 205.589844 Z M 111.992188 204.78125 C 111.8125 204.78125 111.632812 204.691406 111.542969 204.421875 C 111.453125 204.152344 111.632812 203.972656 111.8125 203.882812 C 112.710938 203.613281 113.523438 203.429688 114.421875 203.160156 C 114.691406 203.070312 114.871094 203.25 114.960938 203.523438 C 115.050781 203.792969 114.871094 203.972656 114.601562 204.0625 C 113.703125 204.242188 112.890625 204.511719 111.992188 204.78125 C 112.082031 204.78125 112.082031 204.78125 111.992188 204.78125 Z M 146.734375 204.0625 C 146.734375 204.0625 146.644531 204.0625 146.644531 204.0625 C 145.746094 203.882812 144.933594 203.613281 144.035156 203.429688 C 143.765625 203.339844 143.675781 203.160156 143.675781 202.890625 C 143.765625 202.621094 143.945312 202.53125 144.214844 202.53125 C 145.113281 202.710938 146.015625 202.890625 146.824219 203.160156 C 147.09375 203.25 147.183594 203.429688 147.183594 203.703125 C 147.183594 203.882812 146.914062 204.0625 146.734375 204.0625 Z M 117.300781 203.519531 C 117.121094 203.519531 116.941406 203.339844 116.851562 203.160156 C 116.761719 202.890625 116.941406 202.710938 117.210938 202.621094 C 118.113281 202.441406 119.011719 202.261719 119.914062 202.171875 C 120.183594 202.171875 120.363281 202.261719 120.453125 202.53125 C 120.453125 202.800781 120.363281 202.980469 120.09375 203.070312 C 119.191406 203.25 118.292969 203.339844 117.484375 203.519531 C 117.300781 203.519531 117.300781 203.519531 117.300781 203.519531 Z M 141.425781 202.980469 C 140.433594 202.800781 139.625 202.710938 138.722656 202.621094 C 138.453125 202.621094 138.273438 202.351562 138.363281 202.082031 C 138.363281 201.8125 138.632812 201.632812 138.902344 201.722656 C 139.804688 201.8125 140.703125 201.992188 141.605469 202.082031 C 141.875 202.082031 142.054688 202.351562 141.964844 202.621094 C 141.875 202.800781 141.695312 202.980469 141.425781 202.980469 Z M 122.613281 202.621094 C 122.433594 202.621094 122.164062 202.441406 122.164062 202.261719 C 122.164062 201.992188 122.34375 201.8125 122.523438 201.722656 C 123.421875 201.632812 124.324219 201.542969 125.222656 201.453125 C 125.492188 201.453125 125.671875 201.632812 125.671875 201.902344 C 125.671875 202.171875 125.492188 202.351562 125.222656 202.351562 C 124.414062 202.441406 123.511719 202.53125 122.613281 202.621094 Z M 128.101562 202.441406 C 128.101562 202.441406 128.011719 202.441406 128.011719 202.441406 C 127.832031 202.351562 127.652344 202.171875 127.652344 201.992188 C 127.5625 201.902344 127.5625 201.8125 127.5625 201.722656 C 127.5625 201.542969 127.652344 201.363281 127.832031 201.273438 C 128.011719 200.644531 128.191406 199.925781 128.464844 199.292969 C 128.554688 199.023438 128.824219 198.933594 129.003906 199.023438 C 129.273438 199.113281 129.363281 199.382812 129.273438 199.566406 C 129.09375 200.105469 128.914062 200.644531 128.734375 201.273438 C 129.363281 201.273438 129.992188 201.273438 130.625 201.273438 C 130.894531 201.273438 131.074219 201.453125 131.074219 201.722656 C 131.074219 201.992188 130.894531 202.171875 130.625 202.171875 C 129.902344 202.171875 129.183594 202.171875 128.464844 202.171875 C 128.464844 202.351562 128.28125 202.441406 128.101562 202.441406 Z M 136.113281 202.351562 C 135.214844 202.261719 134.3125 202.261719 133.414062 202.171875 C 133.144531 202.171875 132.964844 201.992188 132.964844 201.722656 C 132.964844 201.453125 133.144531 201.273438 133.414062 201.273438 C 134.3125 201.273438 135.214844 201.363281 136.113281 201.453125 C 136.382812 201.453125 136.5625 201.722656 136.5625 201.902344 C 136.5625 202.171875 136.292969 202.351562 136.113281 202.351562 Z M 129.8125 197.316406 C 129.722656 197.316406 129.722656 197.316406 129.632812 197.316406 C 129.363281 197.226562 129.273438 196.957031 129.363281 196.777344 C 129.722656 195.96875 130.082031 195.066406 130.441406 194.257812 C 130.535156 193.988281 130.804688 193.898438 131.074219 193.988281 C 131.34375 194.078125 131.433594 194.347656 131.34375 194.617188 C 130.984375 195.429688 130.625 196.238281 130.351562 197.046875 C 130.082031 197.226562 129.992188 197.316406 129.8125 197.316406 Z M 131.972656 192.460938 C 131.882812 192.460938 131.792969 192.460938 131.792969 192.371094 C 131.613281 192.28125 131.523438 192.011719 131.613281 191.742188 C 132.0625 190.929688 132.511719 190.121094 132.964844 189.3125 C 133.054688 189.132812 133.324219 189.042969 133.59375 189.132812 C 133.773438 189.222656 133.863281 189.492188 133.773438 189.761719 C 133.324219 190.480469 132.875 191.292969 132.511719 192.101562 C 132.332031 192.371094 132.152344 192.460938 131.972656 192.460938 Z M 134.671875 187.785156 C 134.582031 187.785156 134.492188 187.785156 134.402344 187.695312 C 134.222656 187.515625 134.132812 187.246094 134.3125 187.066406 C 134.582031 186.703125 134.761719 186.34375 135.035156 186.074219 C 135.304688 185.625 135.574219 185.265625 135.933594 184.90625 C 136.113281 184.726562 136.382812 184.636719 136.5625 184.816406 C 136.742188 184.996094 136.832031 185.265625 136.652344 185.445312 C 136.382812 185.804688 136.113281 186.253906 135.753906 186.613281 C 135.484375 186.972656 135.304688 187.246094 135.035156 187.605469 C 135.035156 187.695312 134.855469 187.785156 134.671875 187.785156 Z M 137.914062 183.46875 C 137.824219 183.46875 137.734375 183.46875 137.644531 183.378906 C 137.464844 183.199219 137.464844 182.929688 137.554688 182.746094 C 138.09375 182.027344 138.722656 181.398438 139.355469 180.679688 C 139.535156 180.5 139.804688 180.5 139.984375 180.679688 C 140.164062 180.859375 140.164062 181.128906 139.984375 181.308594 C 139.355469 181.9375 138.8125 182.65625 138.273438 183.378906 C 138.183594 183.378906 138.09375 183.46875 137.914062 183.46875 Z M 141.515625 179.421875 C 141.425781 179.421875 141.242188 179.421875 141.152344 179.332031 C 140.972656 179.152344 140.972656 178.882812 141.152344 178.699219 C 141.785156 178.070312 142.414062 177.441406 143.132812 176.8125 C 143.3125 176.632812 143.585938 176.632812 143.765625 176.8125 C 143.945312 176.992188 143.945312 177.261719 143.765625 177.441406 C 143.132812 178.070312 142.503906 178.699219 141.875 179.332031 C 141.785156 179.332031 141.695312 179.421875 141.515625 179.421875 Z M 145.472656 175.734375 C 145.382812 175.734375 145.203125 175.644531 145.113281 175.554688 C 144.933594 175.375 144.933594 175.105469 145.203125 174.925781 C 145.925781 174.292969 146.554688 173.753906 147.273438 173.214844 C 147.453125 173.035156 147.722656 173.125 147.90625 173.304688 C 148.085938 173.484375 147.996094 173.753906 147.816406 173.933594 C 147.09375 174.472656 146.375 175.015625 145.746094 175.644531 C 145.746094 175.734375 145.65625 175.734375 145.472656 175.734375 Z M 149.792969 172.40625 C 149.613281 172.40625 149.523438 172.316406 149.433594 172.226562 C 149.253906 172.046875 149.34375 171.777344 149.523438 171.597656 C 150.246094 171.058594 150.964844 170.519531 151.773438 170.066406 C 151.953125 169.886719 152.226562 169.976562 152.40625 170.15625 C 152.585938 170.335938 152.496094 170.609375 152.316406 170.789062 C 151.59375 171.328125 150.875 171.777344 150.066406 172.316406 C 149.976562 172.40625 149.882812 172.40625 149.792969 172.40625 Z M 154.296875 169.4375 C 154.113281 169.4375 154.023438 169.347656 153.933594 169.257812 C 153.84375 169.078125 153.84375 168.808594 154.113281 168.628906 C 154.925781 168.179688 155.644531 167.730469 156.457031 167.28125 C 156.636719 167.191406 156.90625 167.191406 157.085938 167.460938 C 157.175781 167.640625 157.175781 167.910156 156.90625 168.089844 C 156.09375 168.539062 155.375 168.988281 154.566406 169.4375 C 154.386719 169.4375 154.386719 169.4375 154.296875 169.4375 Z M 158.976562 166.742188 C 158.796875 166.742188 158.617188 166.652344 158.617188 166.472656 C 158.523438 166.289062 158.617188 166.019531 158.796875 165.839844 C 159.605469 165.390625 160.414062 165.03125 161.226562 164.582031 C 161.40625 164.492188 161.675781 164.582031 161.855469 164.761719 C 161.945312 164.941406 161.855469 165.210938 161.675781 165.390625 C 160.867188 165.75 160.054688 166.199219 159.246094 166.5625 C 159.066406 166.742188 159.066406 166.742188 158.976562 166.742188 Z M 163.835938 164.402344 C 163.65625 164.402344 163.476562 164.3125 163.386719 164.132812 C 163.296875 163.863281 163.386719 163.683594 163.65625 163.503906 C 164.464844 163.144531 165.277344 162.785156 166.175781 162.425781 C 166.445312 162.335938 166.625 162.425781 166.804688 162.695312 C 166.894531 162.964844 166.804688 163.144531 166.535156 163.324219 C 165.726562 163.683594 164.914062 164.042969 164.105469 164.402344 C 163.925781 164.402344 163.925781 164.402344 163.835938 164.402344 Z M 168.875 162.425781 C 168.695312 162.425781 168.515625 162.335938 168.425781 162.152344 C 168.335938 161.882812 168.425781 161.703125 168.695312 161.613281 C 169.507812 161.253906 170.40625 160.984375 171.214844 160.714844 C 171.484375 160.625 171.667969 160.804688 171.757812 160.984375 C 171.847656 161.253906 171.667969 161.433594 171.484375 161.523438 C 170.675781 161.792969 169.777344 162.152344 168.964844 162.425781 C 168.964844 162.425781 168.875 162.425781 168.875 162.425781 Z M 173.917969 160.625 C 173.734375 160.625 173.554688 160.535156 173.464844 160.265625 C 173.375 159.996094 173.554688 159.816406 173.734375 159.726562 C 174.636719 159.457031 175.445312 159.1875 176.347656 158.917969 C 176.617188 158.828125 176.796875 159.007812 176.886719 159.1875 C 176.976562 159.457031 176.796875 159.636719 176.617188 159.726562 C 175.714844 159.996094 174.90625 160.265625 174.007812 160.445312 C 174.007812 160.625 174.007812 160.625 173.917969 160.625 Z M 179.136719 159.1875 C 178.957031 159.1875 178.777344 159.007812 178.6875 158.828125 C 178.597656 158.558594 178.777344 158.378906 179.046875 158.289062 C 179.945312 158.105469 180.847656 157.835938 181.65625 157.65625 C 181.925781 157.566406 182.105469 157.746094 182.195312 158.015625 C 182.285156 158.289062 182.105469 158.46875 181.835938 158.558594 C 180.9375 158.738281 180.125 159.007812 179.226562 159.1875 C 179.226562 159.1875 179.226562 159.1875 179.136719 159.1875 Z M 184.445312 158.015625 C 184.265625 158.015625 184.085938 157.835938 183.996094 157.65625 C 183.90625 157.386719 184.085938 157.207031 184.355469 157.117188 C 184.71875 157.027344 185.078125 156.9375 185.347656 156.9375 C 185.886719 156.847656 186.425781 156.757812 186.96875 156.667969 C 187.238281 156.667969 187.417969 156.757812 187.507812 157.027344 C 187.597656 157.296875 187.417969 157.476562 187.148438 157.566406 C 186.605469 157.65625 186.066406 157.746094 185.527344 157.835938 C 185.167969 157.835938 184.898438 157.925781 184.445312 158.015625 C 184.535156 158.015625 184.445312 158.015625 184.445312 158.015625 Z M 189.757812 157.027344 C 189.578125 157.027344 189.308594 156.847656 189.308594 156.667969 C 189.308594 156.398438 189.398438 156.21875 189.667969 156.128906 C 190.566406 155.949219 191.46875 155.859375 192.367188 155.769531 C 192.636719 155.769531 192.816406 155.949219 192.90625 156.128906 C 192.996094 156.308594 192.726562 156.578125 192.546875 156.667969 C 191.648438 156.757812 190.746094 156.9375 189.757812 157.027344 C 189.847656 157.027344 189.757812 157.027344 189.757812 157.027344 Z M 195.15625 156.398438 C 194.886719 156.398438 194.707031 156.21875 194.707031 156.039062 C 194.707031 155.769531 194.886719 155.589844 195.066406 155.5 C 195.96875 155.410156 196.867188 155.320312 197.769531 155.230469 C 198.039062 155.230469 198.21875 155.410156 198.21875 155.589844 C 198.21875 155.859375 198.039062 156.039062 197.859375 156.039062 C 196.957031 156.128906 196.058594 156.21875 195.15625 156.398438 Z M 261.402344 155.859375 L 259.960938 155.859375 C 259.691406 155.859375 259.511719 155.679688 259.511719 155.410156 C 259.511719 155.140625 259.691406 154.960938 259.960938 154.960938 L 262.664062 154.960938 L 262.664062 155.859375 Z M 265.363281 155.859375 C 265.09375 155.859375 264.914062 155.679688 264.914062 155.410156 C 264.914062 155.140625 265.09375 154.960938 265.363281 154.960938 L 268.0625 154.960938 C 268.332031 154.960938 268.511719 155.140625 268.511719 155.410156 C 268.511719 155.679688 268.332031 155.859375 268.0625 155.859375 Z M 257.261719 155.859375 C 256.363281 155.859375 255.460938 155.859375 254.5625 155.859375 C 254.292969 155.859375 254.113281 155.679688 254.113281 155.410156 C 254.113281 155.140625 254.292969 154.960938 254.5625 154.960938 C 255.460938 154.960938 256.363281 154.960938 257.261719 154.960938 C 257.53125 154.960938 257.710938 155.140625 257.710938 155.410156 C 257.710938 155.679688 257.53125 155.859375 257.261719 155.859375 Z M 200.46875 155.859375 C 200.199219 155.859375 200.019531 155.679688 200.019531 155.410156 C 200.019531 155.140625 200.199219 154.960938 200.46875 154.960938 C 201.367188 154.871094 202.269531 154.78125 203.167969 154.78125 C 203.4375 154.78125 203.617188 154.960938 203.617188 155.230469 C 203.617188 155.5 203.4375 155.679688 203.167969 155.679688 C 202.359375 155.679688 201.457031 155.769531 200.46875 155.859375 C 200.558594 155.859375 200.46875 155.859375 200.46875 155.859375 Z M 270.761719 155.769531 C 270.492188 155.769531 270.3125 155.589844 270.3125 155.320312 C 270.3125 155.050781 270.492188 154.871094 270.761719 154.871094 C 271.664062 154.871094 272.5625 154.871094 273.464844 154.871094 C 273.734375 154.871094 273.914062 155.050781 273.914062 155.320312 C 273.914062 155.589844 273.734375 155.769531 273.464844 155.769531 C 272.5625 155.769531 271.664062 155.769531 270.761719 155.769531 Z M 251.863281 155.769531 C 250.960938 155.769531 250.0625 155.769531 249.160156 155.769531 C 248.890625 155.769531 248.710938 155.589844 248.710938 155.320312 C 248.710938 155.050781 248.890625 154.871094 249.160156 154.871094 C 250.0625 154.871094 250.960938 154.871094 251.863281 154.871094 C 252.132812 154.871094 252.3125 155.050781 252.3125 155.320312 C 252.3125 155.589844 252.042969 155.769531 251.863281 155.769531 Z M 276.164062 155.769531 C 275.894531 155.769531 275.714844 155.589844 275.714844 155.320312 C 275.714844 155.050781 275.894531 154.871094 276.164062 154.871094 C 277.0625 154.871094 277.964844 154.871094 278.863281 154.78125 C 279.132812 154.78125 279.3125 154.960938 279.3125 155.230469 C 279.3125 155.5 279.132812 155.679688 278.863281 155.679688 C 277.964844 155.679688 277.0625 155.679688 276.164062 155.769531 Z M 246.460938 155.679688 L 243.761719 155.589844 C 243.492188 155.589844 243.3125 155.410156 243.3125 155.140625 C 243.3125 154.871094 243.492188 154.691406 243.761719 154.691406 L 246.460938 154.78125 C 246.730469 154.78125 246.910156 154.960938 246.910156 155.230469 C 246.910156 155.5 246.640625 155.679688 246.460938 155.679688 Z M 281.5625 155.589844 C 281.292969 155.589844 281.113281 155.410156 281.113281 155.140625 C 281.113281 154.871094 281.292969 154.691406 281.5625 154.691406 L 284.265625 154.601562 C 284.535156 154.601562 284.714844 154.78125 284.714844 155.050781 C 284.714844 155.320312 284.535156 155.5 284.265625 155.5 Z M 241.0625 155.589844 L 238.359375 155.5 C 238.089844 155.5 237.910156 155.320312 237.910156 155.050781 C 237.910156 154.78125 238.089844 154.601562 238.359375 154.601562 L 241.0625 154.691406 C 241.332031 154.691406 241.511719 154.871094 241.511719 155.140625 C 241.511719 155.410156 241.242188 155.589844 241.0625 155.589844 Z M 205.867188 155.5 C 205.597656 155.5 205.417969 155.320312 205.417969 155.050781 C 205.417969 154.78125 205.597656 154.601562 205.867188 154.601562 C 206.769531 154.511719 207.667969 154.511719 208.570312 154.511719 C 208.839844 154.511719 209.019531 154.691406 209.019531 154.960938 C 209.019531 155.230469 208.839844 155.410156 208.570312 155.410156 C 207.757812 155.410156 206.859375 155.410156 205.867188 155.5 Z M 235.660156 155.5 C 235.660156 155.5 235.570312 155.5 235.660156 155.5 L 232.960938 155.410156 C 232.691406 155.410156 232.511719 155.230469 232.511719 154.960938 C 232.511719 154.691406 232.691406 154.511719 232.960938 154.511719 L 235.660156 154.601562 C 235.929688 154.601562 236.109375 154.78125 236.109375 155.050781 C 236.019531 155.320312 235.839844 155.5 235.660156 155.5 Z M 286.964844 155.5 C 286.695312 155.5 286.515625 155.320312 286.515625 155.050781 C 286.515625 154.78125 286.695312 154.601562 286.964844 154.601562 L 289.664062 154.511719 C 289.933594 154.511719 290.113281 154.691406 290.113281 154.960938 C 290.113281 155.230469 289.933594 155.410156 289.664062 155.410156 Z M 230.261719 155.320312 C 230.171875 155.320312 230.171875 155.320312 230.261719 155.320312 C 229.359375 155.320312 228.460938 155.320312 227.558594 155.230469 C 227.289062 155.230469 227.109375 155.050781 227.109375 154.78125 C 227.109375 154.511719 227.289062 154.332031 227.558594 154.332031 C 228.460938 154.332031 229.359375 154.332031 230.261719 154.421875 C 230.53125 154.421875 230.710938 154.601562 230.710938 154.871094 C 230.621094 155.140625 230.441406 155.320312 230.261719 155.320312 Z M 211.269531 155.320312 C 211 155.320312 210.820312 155.140625 210.820312 154.871094 C 210.820312 154.601562 211 154.421875 211.269531 154.421875 C 212.167969 154.421875 213.070312 154.421875 213.96875 154.332031 C 214.148438 154.332031 214.417969 154.511719 214.417969 154.78125 C 214.417969 155.050781 214.238281 155.230469 213.96875 155.230469 C 213.070312 155.230469 212.167969 155.230469 211.269531 155.320312 Z M 292.363281 155.230469 C 292.09375 155.230469 291.914062 155.050781 291.914062 154.78125 C 291.914062 154.511719 292.09375 154.332031 292.363281 154.332031 C 293.265625 154.332031 294.164062 154.242188 295.066406 154.242188 C 295.335938 154.242188 295.515625 154.421875 295.515625 154.691406 C 295.515625 154.960938 295.335938 155.140625 295.066406 155.140625 C 294.164062 155.230469 293.265625 155.230469 292.363281 155.230469 Z M 224.769531 155.230469 C 223.871094 155.230469 222.96875 155.230469 222.070312 155.230469 C 221.800781 155.230469 221.621094 155.050781 221.621094 154.78125 C 221.621094 154.511719 221.800781 154.332031 222.070312 154.332031 C 222.96875 154.332031 223.871094 154.332031 224.769531 154.332031 C 225.039062 154.332031 225.21875 154.511719 225.21875 154.78125 C 225.21875 155.050781 225.039062 155.230469 224.769531 155.230469 Z M 216.667969 155.230469 C 216.398438 155.230469 216.21875 155.050781 216.21875 154.78125 C 216.21875 154.511719 216.398438 154.332031 216.667969 154.332031 C 217.390625 154.332031 218.109375 154.332031 218.828125 154.332031 L 219.371094 154.332031 C 219.640625 154.332031 219.820312 154.511719 219.820312 154.78125 C 219.820312 155.050781 219.640625 155.230469 219.371094 155.230469 L 218.828125 155.230469 C 218.109375 155.230469 217.390625 155.230469 216.667969 155.230469 Z M 297.765625 155.050781 C 297.496094 155.050781 297.316406 154.871094 297.316406 154.601562 C 297.316406 154.332031 297.496094 154.152344 297.765625 154.152344 C 298.664062 154.152344 299.566406 154.0625 300.464844 154.0625 C 300.734375 154.0625 300.914062 154.242188 300.914062 154.511719 C 300.914062 154.78125 300.734375 154.960938 300.464844 154.960938 C 299.566406 154.960938 298.664062 154.960938 297.765625 155.050781 Z M 303.164062 154.78125 C 302.894531 154.78125 302.714844 154.601562 302.714844 154.332031 C 302.714844 154.0625 302.894531 153.878906 303.164062 153.878906 L 305.863281 153.699219 C 306.136719 153.699219 306.316406 153.878906 306.316406 154.152344 C 306.316406 154.421875 306.136719 154.601562 305.863281 154.601562 Z M 308.566406 154.511719 C 308.296875 154.511719 308.117188 154.332031 308.117188 154.0625 C 308.117188 153.789062 308.296875 153.609375 308.566406 153.609375 C 309.464844 153.519531 310.367188 153.519531 311.265625 153.429688 C 311.535156 153.429688 311.714844 153.609375 311.714844 153.878906 C 311.714844 154.152344 311.535156 154.332031 311.265625 154.332031 C 310.367188 154.332031 309.464844 154.421875 308.566406 154.511719 Z M 313.964844 154.152344 C 313.695312 154.152344 313.515625 153.96875 313.515625 153.699219 C 313.515625 153.429688 313.695312 153.25 313.964844 153.25 C 314.867188 153.160156 315.765625 153.160156 316.664062 153.070312 C 316.9375 153.070312 317.117188 153.25 317.117188 153.519531 C 317.117188 153.789062 316.9375 153.96875 316.664062 153.96875 C 315.765625 153.96875 314.867188 154.0625 313.964844 154.152344 Z M 319.367188 153.789062 C 319.097656 153.789062 318.917969 153.609375 318.917969 153.339844 C 318.917969 153.070312 319.097656 152.890625 319.367188 152.890625 L 322.066406 152.710938 C 322.335938 152.710938 322.515625 152.890625 322.515625 153.160156 C 322.515625 153.429688 322.335938 153.609375 322.066406 153.609375 Z M 324.765625 153.339844 C 324.496094 153.339844 324.316406 153.160156 324.316406 152.890625 C 324.316406 152.621094 324.496094 152.441406 324.765625 152.441406 L 327.464844 152.261719 C 327.648438 152.261719 327.917969 152.441406 327.917969 152.710938 C 327.917969 152.980469 327.738281 153.160156 327.464844 153.160156 Z M 330.167969 152.890625 C 329.898438 152.890625 329.71875 152.710938 329.71875 152.441406 C 329.71875 152.171875 329.898438 151.992188 330.167969 151.992188 C 331.066406 151.902344 331.96875 151.8125 332.867188 151.722656 C 333.136719 151.722656 333.316406 151.902344 333.316406 152.082031 C 333.316406 152.351562 333.136719 152.53125 332.957031 152.53125 C 331.96875 152.710938 331.066406 152.800781 330.167969 152.890625 Z M 335.476562 152.351562 C 335.296875 152.351562 335.027344 152.171875 335.027344 151.992188 C 335.027344 151.722656 335.207031 151.542969 335.386719 151.453125 C 336.289062 151.363281 337.1875 151.183594 338.085938 151.09375 C 338.355469 151.09375 338.539062 151.183594 338.628906 151.453125 C 338.628906 151.722656 338.539062 151.902344 338.265625 151.992188 C 337.367188 152.082031 336.46875 152.261719 335.476562 152.351562 C 335.566406 152.351562 335.566406 152.351562 335.476562 152.351562 Z M 340.878906 151.542969 C 340.699219 151.542969 340.515625 151.363281 340.425781 151.183594 C 340.335938 150.914062 340.515625 150.734375 340.789062 150.644531 C 341.6875 150.464844 342.585938 150.285156 343.398438 150.105469 C 343.667969 150.015625 343.847656 150.195312 343.9375 150.464844 C 344.027344 150.734375 343.847656 150.914062 343.578125 151.003906 C 342.675781 151.183594 341.867188 151.363281 340.878906 151.542969 Z M 346.097656 150.285156 C 345.917969 150.285156 345.738281 150.195312 345.648438 149.925781 C 345.558594 149.652344 345.738281 149.472656 345.917969 149.382812 C 346.816406 149.113281 347.628906 148.84375 348.4375 148.574219 C 348.707031 148.484375 348.886719 148.574219 348.976562 148.84375 C 349.066406 149.113281 348.976562 149.292969 348.707031 149.382812 C 347.898438 149.652344 346.996094 149.925781 346.097656 150.195312 C 346.1875 150.285156 346.1875 150.285156 346.097656 150.285156 Z M 351.226562 148.484375 C 351.046875 148.484375 350.867188 148.394531 350.777344 148.214844 C 350.6875 147.945312 350.777344 147.765625 351.046875 147.585938 C 351.859375 147.226562 352.667969 146.867188 353.476562 146.417969 C 353.660156 146.328125 353.929688 146.417969 354.109375 146.597656 C 354.199219 146.777344 354.109375 147.046875 353.929688 147.226562 C 353.117188 147.675781 352.308594 148.035156 351.410156 148.394531 C 351.316406 148.484375 351.316406 148.484375 351.226562 148.484375 Z M 356 146.058594 C 355.820312 146.058594 355.730469 145.96875 355.636719 145.878906 C 355.546875 145.695312 355.546875 145.425781 355.820312 145.246094 C 356.539062 144.796875 357.347656 144.257812 358.070312 143.71875 C 358.25 143.539062 358.519531 143.628906 358.699219 143.808594 C 358.878906 143.988281 358.789062 144.257812 358.609375 144.4375 C 357.890625 144.976562 357.078125 145.515625 356.359375 145.96875 C 356.179688 146.058594 356.089844 146.058594 356 146.058594 Z M 360.320312 142.820312 C 360.230469 142.820312 360.050781 142.730469 359.957031 142.640625 C 359.777344 142.460938 359.777344 142.191406 359.957031 142.011719 C 360.589844 141.378906 361.308594 140.75 361.847656 140.121094 C 362.027344 139.941406 362.300781 139.941406 362.480469 140.121094 C 362.660156 140.300781 362.660156 140.570312 362.480469 140.75 C 361.847656 141.378906 361.21875 142.101562 360.5 142.640625 C 360.589844 142.820312 360.5 142.820312 360.320312 142.820312 Z M 364.007812 138.863281 C 363.917969 138.863281 363.828125 138.863281 363.738281 138.773438 C 363.558594 138.59375 363.46875 138.324219 363.648438 138.144531 C 364.1875 137.421875 364.640625 136.703125 365.089844 135.894531 C 365.179688 135.714844 365.449219 135.625 365.71875 135.714844 C 365.898438 135.804688 365.988281 136.074219 365.898438 136.34375 C 365.449219 137.152344 364.910156 137.875 364.371094 138.683594 C 364.277344 138.773438 364.097656 138.863281 364.007812 138.863281 Z M 364.007812 138.863281 " fill-opacity="1" fill-rule="nonzero"/><path fill="#c57000" d="M 366.710938 134.097656 C 366.621094 134.097656 366.621094 134.097656 366.53125 134.097656 C 366.257812 134.007812 366.167969 133.738281 366.257812 133.46875 C 366.4375 133.105469 366.621094 132.65625 366.710938 132.207031 C 366.800781 131.9375 367.070312 131.847656 367.25 131.9375 C 367.519531 132.027344 367.609375 132.296875 367.519531 132.476562 C 367.339844 132.925781 367.25 133.375 367.070312 133.738281 C 367.070312 134.007812 366.890625 134.097656 366.710938 134.097656 Z M 366.710938 134.097656 " fill-opacity="1" fill-rule="nonzero"/><path stroke-linecap="round" transform="matrix(0.900061, 0, 0, 0.899289, 38.997133, 88.682271)" fill-opacity="1" fill="#c57000" fill-rule="nonzero" stroke-linejoin="round" d="M 367.699619 41.601172 C 366.197985 41.401362 364.700691 41.00174 363.099237 40.80193 C 363.398695 40.198154 363.902134 39.598722 364.201592 38.999291 C 364.80051 38.79948 365.898526 38.699575 366.601603 38.599669 C 367.40016 38.499764 367.40016 38.499764 368.498176 38.299953 C 369.201254 35.598166 370.399089 32.900723 372.100363 30.698463 C 367.699619 29.599504 363.298876 29.099978 358.898132 29.099978 C 358.898132 28.600451 358.698493 28.001019 358.698493 27.401587 C 360.898865 26.802156 362.999417 26.298285 365.299608 25.898664 C 368.801975 25.399138 372.300002 24.899611 375.798029 24.400085 C 376.900385 21.398582 379.000937 19.10076 381.900046 17.398026 M 369.201254 42.50032 C 370.19945 43.699184 371.201986 44.898047 372.200182 46.101255 C 372.499641 45.501823 372.89892 44.798142 373.198378 44.19871 C 372.998739 43.599278 372.69928 42.600225 372.399821 41.900888 C 372.100363 41.201551 372.100363 41.201551 371.701084 40.098249 C 373.701817 38.200048 375.49857 35.797977 376.501106 33.200439 C 379.699674 36.401753 382.299324 39.998344 384.499696 43.799089 C 384.998794 43.599278 385.602052 43.399468 386.00133 43.099752 C 385.398073 40.901835 384.799155 38.79948 384.000598 36.601563 C 382.698603 33.300344 381.400948 29.999125 380.098952 26.802156 C 382.099685 24.400085 383.097881 21.298676 383.097881 18.101707 M 369.201254 42.50032 C 368.702155 42.200604 368.198717 41.900888 367.699619 41.601172 M 383.097881 18.101707 C 383.097881 17.901896 382.898242 17.597836 382.698603 17.497931 C 382.498963 17.398026 382.199505 17.29812 381.900046 17.398026 M 381.101489 18.101707 L 367.5998 41.501267 L 369.301073 42.50032 L 382.798422 19.10076 Z M 381.301128 18.001801 C 381.001669 18.501328 381.101489 19.200665 381.500767 19.400476 C 381.900046 19.600286 382.498963 19.400476 382.798422 18.900949 C 383.097881 18.401422 382.998062 17.702085 382.598783 17.497931 C 382.199505 17.29812 381.600587 17.497931 381.301128 18.001801 Z M 381.301128 18.001801 " stroke="#000000" stroke-width="0.121" stroke-opacity="1" stroke-miterlimit="10"/><g clip-path="url(#6a9590883d)"><path fill="#c57000" d="M 44.667969 324.566406 C 44.667969 326.09375 43.496094 327.261719 41.96875 327.261719 C 40.4375 327.261719 39.265625 326.09375 39.265625 324.566406 C 39.265625 323.035156 40.4375 321.867188 41.96875 321.867188 C 43.496094 321.867188 44.667969 323.035156 44.667969 324.566406 Z M 390.289062 88.953125 C 388.761719 88.953125 387.589844 90.121094 387.589844 91.648438 C 387.589844 93.179688 388.761719 94.347656 390.289062 94.347656 C 391.820312 94.347656 392.992188 93.179688 392.992188 91.648438 C 392.992188 90.121094 391.730469 88.953125 390.289062 88.953125 Z M 390.289062 88.953125 " fill-opacity="1" fill-rule="nonzero"/></g><g clip-path="url(#4c39c0c799)"><path stroke-linecap="round" transform="matrix(0.900061, 0, 0, 0.899289, 38.997133, 88.682271)" fill="none" stroke-linejoin="miter" d="M 6.300501 262.300683 C 6.300501 263.999073 4.998506 265.297842 3.301572 265.297842 C 1.600299 265.297842 0.298304 263.999073 0.298304 262.300683 C 0.298304 260.597949 1.600299 259.29918 3.301572 259.29918 C 4.998506 259.29918 6.300501 260.597949 6.300501 262.300683 Z M 390.297914 0.301187 C 388.60098 0.301187 387.298985 1.599956 387.298985 3.298346 C 387.298985 5.00108 388.60098 6.299849 390.297914 6.299849 C 391.999188 6.299849 393.301183 5.00108 393.301183 3.298346 C 393.301183 1.599956 391.899368 0.301187 390.297914 0.301187 Z M 390.297914 0.301187 " stroke="#000000" stroke-width="0.555" stroke-opacity="1" stroke-miterlimit="10"/></g><g fill="#0c7666" fill-opacity="1"><g transform="translate(83.414692, 139.919355)"><g><path d="M 24.335938 -0.0625 L 33.414062 -34.1875 L 39.851562 -58.714844 L 32.449219 -58.714844 L 27.941406 -29.871094 L 22.148438 -7.984375 L 10.300781 -58.714844 L 0 -58.714844 L 13.777344 0 Z M 24.335938 -0.0625 "/></g></g></g><g fill="#0c7666" fill-opacity="1"><g transform="translate(124.03629, 139.919355)"><g><path d="M 8.949219 -53.308594 C 12.105469 -53.308594 14.679688 -55.949219 14.679688 -59.039062 C 14.679688 -62.257812 12.105469 -64.832031 8.949219 -64.832031 C 5.792969 -64.832031 3.15625 -62.257812 3.15625 -59.039062 C 3.15625 -55.949219 5.792969 -53.308594 8.949219 -53.308594 Z M 14.097656 0 L 14.097656 -48.738281 L 3.796875 -48.738281 L 3.796875 0 Z M 14.097656 0 "/></g></g></g><g fill="#0c7666" fill-opacity="1"><g transform="translate(141.868589, 139.919355)"><g><path d="M 25.367188 -49.636719 C 19.507812 -49.636719 12.746094 -47.382812 7.53125 -43.136719 L 8.820312 -35.214844 L 11.71875 -35.214844 C 13.519531 -41.847656 18.542969 -45.515625 22.535156 -45.515625 C 25.429688 -45.515625 27.878906 -43.523438 27.878906 -39.335938 L 27.878906 -35.539062 C 18.542969 -29.808594 1.929688 -32.578125 1.929688 -13.199219 C 1.929688 -4.121094 7.46875 0.902344 15.644531 0.902344 C 19.957031 0.902344 24.65625 -1.222656 27.878906 -6.824219 L 27.878906 0 L 38.179688 0 L 38.179688 -39.273438 C 38.179688 -46.355469 32.449219 -49.636719 25.367188 -49.636719 Z M 18.347656 -4.3125 C 14.808594 -4.3125 12.234375 -7.726562 12.234375 -14.164062 C 12.234375 -28.003906 19.3125 -27.167969 27.878906 -32.125 L 27.878906 -12.554688 C 25.367188 -7.46875 21.695312 -4.3125 18.347656 -4.3125 Z M 18.347656 -4.3125 "/></g></g></g><g fill="#0c7666" fill-opacity="1"><g transform="translate(182.94081, 139.919355)"><g><path d="M 25.238281 -6.4375 C 34.574219 -7.855469 41.140625 -14.421875 41.140625 -27.425781 C 41.140625 -36.570312 37.921875 -42.75 32.769531 -46.226562 C 35.472656 -46.417969 38.308594 -47.578125 39.59375 -50.605469 L 36.953125 -56.203125 L 34.894531 -56.203125 C 34.894531 -53.242188 32.578125 -49.445312 29.292969 -47.964844 C 26.847656 -48.929688 24.144531 -49.378906 21.179688 -49.378906 C 8.5625 -49.378906 1.222656 -42.234375 1.222656 -27.425781 C 1.222656 -15.386719 6.117188 -8.820312 14.679688 -6.824219 C 13.519531 -6.695312 12.359375 -6.566406 11.203125 -6.375 L 11.203125 -2.1875 C 13.132812 -2.445312 15 -2.574219 16.738281 -2.574219 C 24.207031 -2.574219 29.359375 -0.128906 29.359375 5.601562 C 29.359375 10.878906 25.109375 13.84375 20.214844 13.84375 C 14.742188 13.84375 8.304688 10.042969 6.117188 1.417969 L 3.476562 1.417969 L 2.574219 10.75 C 3.863281 12.746094 9.722656 17.832031 20.539062 17.832031 C 33.414062 17.832031 39.402344 11.847656 39.402344 5.792969 C 39.402344 -1.289062 33.09375 -5.085938 25.238281 -6.4375 Z M 21.179688 -45.839844 C 27.105469 -45.839844 30.839844 -39.722656 30.839844 -27.425781 C 30.839844 -15.257812 27.105469 -9.722656 21.179688 -9.722656 C 14.292969 -9.722656 11.523438 -15.257812 11.523438 -27.425781 C 11.523438 -39.722656 14.292969 -45.839844 21.179688 -45.839844 Z M 21.179688 -45.839844 "/></g></g></g><g fill="#0c7666" fill-opacity="1"><g transform="translate(225.429318, 139.919355)"><g><path d="M 37.40625 -15.386719 C 34.832031 -7.082031 29.9375 -3.089844 25.109375 -3.089844 C 20.085938 -3.089844 15.128906 -7.402344 13.003906 -15.710938 L 14.292969 -15.710938 C 28.972656 -15.710938 41.785156 -24.015625 41.785156 -36.183594 C 41.785156 -43.136719 36.632812 -49.703125 24.464844 -49.703125 C 11.71875 -49.703125 1.609375 -40.496094 1.609375 -25.238281 C 1.609375 -7.789062 12.167969 0.902344 23.949219 0.902344 C 32.382812 0.902344 39.660156 -3.21875 41.785156 -7.339844 L 40.496094 -15.386719 Z M 24.980469 -45.96875 C 29.164062 -45.96875 32.769531 -42.878906 32.769531 -35.410156 C 32.769531 -28.132812 27.621094 -19.25 12.359375 -18.929688 C 12.039062 -20.859375 11.910156 -22.984375 11.910156 -25.238281 C 11.910156 -38.308594 18.671875 -45.96875 24.980469 -45.96875 Z M 24.980469 -45.96875 "/></g></g></g><g fill="#0c7666" fill-opacity="1"><g transform="translate(268.497227, 139.919355)"><g><path d="M 39.464844 -37.339844 C 39.464844 -45.902344 35.085938 -49.574219 29.617188 -49.574219 C 24.078125 -49.574219 17.253906 -45.710938 12.875 -39.402344 L 12.875 -48.738281 L 2.574219 -48.738281 L 2.574219 0 L 12.875 0 L 12.875 -33.476562 C 16.675781 -39.660156 22.019531 -44.292969 25.496094 -44.292969 C 27.75 -44.292969 29.230469 -42.492188 29.230469 -37.984375 L 29.230469 0 L 39.53125 0 Z M 39.464844 -37.339844 "/></g></g></g><g fill="#0c7666" fill-opacity="1"><g transform="translate(310.599473, 139.919355)"><g><path d="M 19.570312 0.835938 C 27.554688 0.835938 35.539062 -3.476562 36.054688 -12.296875 C 36.117188 -12.8125 36.117188 -13.390625 36.117188 -13.90625 C 35.410156 -28.648438 10.6875 -33.09375 10.6875 -40.882812 C 10.6875 -44.359375 13.648438 -46.355469 17.125 -46.355469 C 21.761719 -46.355469 27.75 -42.75 29.742188 -35.085938 L 33.414062 -35.085938 L 34.703125 -42.167969 C 31.675781 -47.0625 24.722656 -49.703125 18.285156 -49.703125 C 10.621094 -49.703125 3.027344 -45.902344 3.027344 -37.984375 C 3.027344 -37.46875 3.027344 -37.019531 3.089844 -36.441406 C 4.570312 -24.078125 27.492188 -21.375 28.070312 -10.300781 C 28.390625 -5.152344 24.785156 -2.511719 20.859375 -2.511719 C 15.835938 -2.511719 9.722656 -6.890625 7.660156 -15.773438 L 4.121094 -15.773438 L 2.832031 -7.984375 C 6.246094 -2.125 13.003906 0.835938 19.570312 0.835938 Z M 19.570312 0.835938 "/></g></g></g><g fill="#16695c" fill-opacity="1"><g transform="translate(19.909265, 205.649023)"><g><path d="M 2.890625 0 L 21.421875 -52.65625 L 25.484375 -52.65625 L 44.25 0 L 40.4375 0 L 34.734375 -16.734375 L 12.25 -16.734375 L 6.546875 0 Z M 13.234375 -19.703125 L 33.671875 -19.703125 L 23.359375 -49.65625 Z M 13.234375 -19.703125 "/></g></g></g><g fill="#16695c" fill-opacity="1"><g transform="translate(67.042436, 205.649023)"><g><path d="M 8.03125 0 L 8.03125 -56.65625 L 11.296875 -56.65625 L 11.296875 0 Z M 8.03125 0 "/></g></g></g><g fill="#16695c" fill-opacity="1"><g transform="translate(86.367412, 205.649023)"><g><path d="M 31.546875 0 L 31.546875 -6.703125 C 28.929688 -4.285156 26.46875 -2.367188 24.15625 -0.953125 C 21.851562 0.460938 19.597656 1.171875 17.390625 1.171875 C 15.285156 1.171875 13.566406 0.851562 12.234375 0.21875 C 10.898438 -0.40625 9.851562 -1.332031 9.09375 -2.5625 C 8.332031 -3.789062 7.804688 -5.300781 7.515625 -7.09375 C 7.222656 -8.882812 7.078125 -10.929688 7.078125 -13.234375 L 7.078125 -39.90625 L 10.34375 -39.90625 L 10.34375 -13.765625 C 10.34375 -11.285156 10.484375 -9.269531 10.765625 -7.71875 C 11.046875 -6.175781 11.476562 -4.957031 12.0625 -4.0625 C 12.644531 -3.175781 13.382812 -2.570312 14.28125 -2.25 C 15.1875 -1.9375 16.25 -1.78125 17.46875 -1.78125 C 21.289062 -1.78125 25.984375 -4.5625 31.546875 -10.125 L 31.546875 -39.90625 L 34.8125 -39.90625 L 34.8125 0 Z M 31.546875 0 "/></g></g></g><g fill="#16695c" fill-opacity="1"><g transform="translate(128.593247, 205.649023)"><g><path d="M 34.046875 -6.703125 C 32.753906 -4.035156 31.0625 -2.054688 28.96875 -0.765625 C 26.875 0.523438 24.253906 1.171875 21.109375 1.171875 C 18.117188 1.171875 15.613281 0.632812 13.59375 -0.4375 C 11.582031 -1.507812 9.96875 -2.988281 8.75 -4.875 C 7.53125 -6.769531 6.660156 -8.992188 6.140625 -11.546875 C 5.617188 -14.097656 5.359375 -16.84375 5.359375 -19.78125 C 5.359375 -23.03125 5.644531 -25.96875 6.21875 -28.59375 C 6.789062 -31.21875 7.703125 -33.445312 8.953125 -35.28125 C 10.210938 -37.125 11.84375 -38.546875 13.84375 -39.546875 C 15.851562 -40.546875 18.273438 -41.046875 21.109375 -41.046875 C 24.023438 -41.046875 26.472656 -40.40625 28.453125 -39.125 C 30.429688 -37.84375 32.144531 -35.835938 33.59375 -33.109375 L 30.859375 -31.625 C 30.273438 -32.757812 29.664062 -33.742188 29.03125 -34.578125 C 28.394531 -35.421875 27.679688 -36.113281 26.890625 -36.65625 C 26.109375 -37.207031 25.234375 -37.613281 24.265625 -37.875 C 23.304688 -38.144531 22.207031 -38.28125 20.96875 -38.28125 C 16.832031 -38.28125 13.765625 -36.765625 11.765625 -33.734375 C 9.773438 -30.703125 8.78125 -25.976562 8.78125 -19.5625 C 8.78125 -16.769531 9.007812 -14.265625 9.46875 -12.046875 C 9.925781 -9.828125 10.648438 -7.945312 11.640625 -6.40625 C 12.628906 -4.875 13.90625 -3.695312 15.46875 -2.875 C 17.03125 -2.050781 18.910156 -1.640625 21.109375 -1.640625 C 22.554688 -1.640625 23.8125 -1.804688 24.875 -2.140625 C 25.945312 -2.484375 26.878906 -2.957031 27.671875 -3.5625 C 28.472656 -4.175781 29.164062 -4.890625 29.75 -5.703125 C 30.332031 -6.515625 30.878906 -7.390625 31.390625 -8.328125 Z M 34.046875 -6.703125 "/></g></g></g><g fill="#16695c" fill-opacity="1"><g transform="translate(166.672591, 205.649023)"><g><path d="M 11.75 -49.234375 C 11.75 -48.171875 11.539062 -47.453125 11.125 -47.078125 C 10.707031 -46.710938 10.019531 -46.53125 9.0625 -46.53125 C 8.019531 -46.53125 7.300781 -46.765625 6.90625 -47.234375 C 6.507812 -47.703125 6.3125 -48.367188 6.3125 -49.234375 C 6.3125 -50.171875 6.519531 -50.859375 6.9375 -51.296875 C 7.363281 -51.742188 8.070312 -51.96875 9.0625 -51.96875 C 10.070312 -51.96875 10.769531 -51.757812 11.15625 -51.34375 C 11.550781 -50.925781 11.75 -50.222656 11.75 -49.234375 Z M 7.421875 0 L 7.421875 -39.90625 L 10.6875 -39.90625 L 10.6875 0 Z M 7.421875 0 "/></g></g></g><g fill="#16695c" fill-opacity="1"><g transform="translate(184.742215, 205.649023)"><g><path d="M 31.890625 0 L 31.890625 -26.09375 C 31.890625 -28.5625 31.75 -30.570312 31.46875 -32.125 C 31.1875 -33.6875 30.753906 -34.910156 30.171875 -35.796875 C 29.585938 -36.691406 28.84375 -37.296875 27.9375 -37.609375 C 27.039062 -37.921875 25.984375 -38.078125 24.765625 -38.078125 C 22.867188 -38.078125 20.753906 -37.398438 18.421875 -36.046875 C 16.085938 -34.691406 13.507812 -32.59375 10.6875 -29.75 L 10.6875 0 L 7.421875 0 L 7.421875 -39.90625 L 10.6875 -39.90625 L 10.6875 -33.171875 C 12.0625 -34.472656 13.367188 -35.609375 14.609375 -36.578125 C 15.847656 -37.554688 17.046875 -38.378906 18.203125 -39.046875 C 19.359375 -39.722656 20.5 -40.222656 21.625 -40.546875 C 22.757812 -40.878906 23.910156 -41.046875 25.078125 -41.046875 C 27.128906 -41.046875 28.804688 -40.726562 30.109375 -40.09375 C 31.421875 -39.46875 32.445312 -38.535156 33.1875 -37.296875 C 33.9375 -36.066406 34.453125 -34.554688 34.734375 -32.765625 C 35.015625 -30.984375 35.15625 -28.941406 35.15625 -26.640625 L 35.15625 0 Z M 31.890625 0 "/></g></g></g><g fill="#16695c" fill-opacity="1"><g transform="translate(226.968049, 205.649023)"><g><path d="M 29.984375 0 L 29.984375 -6.625 C 28.742188 -5.476562 27.550781 -4.425781 26.40625 -3.46875 C 25.257812 -2.519531 24.113281 -1.703125 22.96875 -1.015625 C 21.832031 -0.335938 20.65625 0.191406 19.4375 0.578125 C 18.21875 0.972656 16.914062 1.171875 15.53125 1.171875 C 13.644531 1.171875 12.039062 0.898438 10.71875 0.359375 C 9.40625 -0.179688 8.328125 -0.976562 7.484375 -2.03125 C 6.648438 -3.082031 6.035156 -4.378906 5.640625 -5.921875 C 5.253906 -7.472656 5.0625 -9.238281 5.0625 -11.21875 C 5.0625 -12.945312 5.265625 -14.550781 5.671875 -16.03125 C 6.078125 -17.519531 6.878906 -18.832031 8.078125 -19.96875 C 9.285156 -21.113281 10.984375 -22.078125 13.171875 -22.859375 C 15.367188 -23.648438 18.242188 -24.210938 21.796875 -24.546875 L 29.984375 -25.34375 L 29.984375 -27.4375 C 29.984375 -29.257812 29.816406 -30.847656 29.484375 -32.203125 C 29.160156 -33.566406 28.582031 -34.695312 27.75 -35.59375 C 26.925781 -36.488281 25.828125 -37.160156 24.453125 -37.609375 C 23.085938 -38.054688 21.378906 -38.28125 19.328125 -38.28125 C 17.679688 -38.28125 16.265625 -38.140625 15.078125 -37.859375 C 13.898438 -37.578125 12.894531 -37.195312 12.0625 -36.71875 C 11.226562 -36.238281 10.53125 -35.671875 9.96875 -35.015625 C 9.40625 -34.367188 8.910156 -33.679688 8.484375 -32.953125 L 6.09375 -34.515625 C 6.695312 -35.523438 7.382812 -36.4375 8.15625 -37.25 C 8.9375 -38.0625 9.84375 -38.742188 10.875 -39.296875 C 11.914062 -39.859375 13.128906 -40.289062 14.515625 -40.59375 C 15.898438 -40.894531 17.503906 -41.046875 19.328125 -41.046875 C 21.910156 -41.046875 24.085938 -40.773438 25.859375 -40.234375 C 27.640625 -39.691406 29.078125 -38.847656 30.171875 -37.703125 C 31.265625 -36.566406 32.050781 -35.125 32.53125 -33.375 C 33.007812 -31.625 33.25 -29.539062 33.25 -27.125 L 33.25 0 Z M 29.984375 -22.53125 L 21.984375 -21.71875 C 19.203125 -21.445312 16.9375 -21.039062 15.1875 -20.5 C 13.4375 -19.96875 12.066406 -19.285156 11.078125 -18.453125 C 10.085938 -17.617188 9.40625 -16.617188 9.03125 -15.453125 C 8.664062 -14.285156 8.484375 -12.925781 8.484375 -11.375 C 8.484375 -7.976562 9.046875 -5.503906 10.171875 -3.953125 C 11.304688 -2.410156 13.164062 -1.640625 15.75 -1.640625 C 16.632812 -1.640625 17.5 -1.734375 18.34375 -1.921875 C 19.195312 -2.109375 20.148438 -2.5 21.203125 -3.09375 C 22.265625 -3.695312 23.488281 -4.535156 24.875 -5.609375 C 26.269531 -6.691406 27.972656 -8.117188 29.984375 -9.890625 Z M 29.984375 -22.53125 "/></g></g></g><g fill="#16695c" fill-opacity="1"><g transform="translate(267.329871, 205.649023)"><g><path d="M 31.890625 0 L 31.890625 -26.09375 C 31.890625 -28.5625 31.75 -30.570312 31.46875 -32.125 C 31.1875 -33.6875 30.753906 -34.910156 30.171875 -35.796875 C 29.585938 -36.691406 28.84375 -37.296875 27.9375 -37.609375 C 27.039062 -37.921875 25.984375 -38.078125 24.765625 -38.078125 C 22.867188 -38.078125 20.753906 -37.398438 18.421875 -36.046875 C 16.085938 -34.691406 13.507812 -32.59375 10.6875 -29.75 L 10.6875 0 L 7.421875 0 L 7.421875 -39.90625 L 10.6875 -39.90625 L 10.6875 -33.171875 C 12.0625 -34.472656 13.367188 -35.609375 14.609375 -36.578125 C 15.847656 -37.554688 17.046875 -38.378906 18.203125 -39.046875 C 19.359375 -39.722656 20.5 -40.222656 21.625 -40.546875 C 22.757812 -40.878906 23.910156 -41.046875 25.078125 -41.046875 C 27.128906 -41.046875 28.804688 -40.726562 30.109375 -40.09375 C 31.421875 -39.46875 32.445312 -38.535156 33.1875 -37.296875 C 33.9375 -36.066406 34.453125 -34.554688 34.734375 -32.765625 C 35.015625 -30.984375 35.15625 -28.941406 35.15625 -26.640625 L 35.15625 0 Z M 31.890625 0 "/></g></g></g><g fill="#16695c" fill-opacity="1"><g transform="translate(309.555706, 205.649023)"><g><path d="M 25.1875 -0.15625 C 24.300781 0.195312 23.28125 0.503906 22.125 0.765625 C 20.96875 1.035156 19.742188 1.171875 18.453125 1.171875 C 16.503906 1.171875 14.898438 0.941406 13.640625 0.484375 C 12.378906 0.0351562 11.390625 -0.695312 10.671875 -1.71875 C 9.953125 -2.75 9.445312 -4.109375 9.15625 -5.796875 C 8.863281 -7.484375 8.71875 -9.570312 8.71875 -12.0625 L 8.71875 -36.9375 L 2.390625 -36.9375 L 2.390625 -39.90625 L 8.71875 -39.90625 L 8.71875 -51.015625 L 11.984375 -51.015625 L 11.984375 -39.90625 L 22.984375 -39.90625 L 22.984375 -36.9375 L 11.984375 -36.9375 L 11.984375 -11.984375 C 11.984375 -9.878906 12.082031 -8.15625 12.28125 -6.8125 C 12.488281 -5.46875 12.84375 -4.414062 13.34375 -3.65625 C 13.851562 -2.894531 14.523438 -2.367188 15.359375 -2.078125 C 16.203125 -1.785156 17.257812 -1.640625 18.53125 -1.640625 C 18.988281 -1.640625 19.484375 -1.671875 20.015625 -1.734375 C 20.546875 -1.796875 21.070312 -1.882812 21.59375 -2 C 22.113281 -2.113281 22.613281 -2.238281 23.09375 -2.375 C 23.570312 -2.519531 24.003906 -2.664062 24.390625 -2.8125 Z M 25.1875 -0.15625 "/></g></g></g><g fill="#16695c" fill-opacity="1"><g transform="translate(336.907405, 205.649023)"><g><path d="M 8.78125 -20.734375 C 8.78125 -17.160156 8.976562 -14.148438 9.375 -11.703125 C 9.769531 -9.253906 10.40625 -7.285156 11.28125 -5.796875 C 12.15625 -4.316406 13.304688 -3.253906 14.734375 -2.609375 C 16.171875 -1.960938 17.929688 -1.640625 20.015625 -1.640625 C 21.234375 -1.640625 22.34375 -1.738281 23.34375 -1.9375 C 24.34375 -2.144531 25.28125 -2.488281 26.15625 -2.96875 C 27.03125 -3.445312 27.847656 -4.085938 28.609375 -4.890625 C 29.367188 -5.691406 30.117188 -6.6875 30.859375 -7.875 L 33.375 -6.15625 C 32.6875 -5.019531 31.941406 -4 31.140625 -3.09375 C 30.335938 -2.195312 29.410156 -1.429688 28.359375 -0.796875 C 27.304688 -0.160156 26.101562 0.320312 24.75 0.65625 C 23.394531 1 21.816406 1.171875 20.015625 1.171875 C 17.523438 1.171875 15.359375 0.800781 13.515625 0.0625 C 11.679688 -0.664062 10.160156 -1.851562 8.953125 -3.5 C 7.753906 -5.144531 6.851562 -7.289062 6.25 -9.9375 C 5.65625 -12.59375 5.359375 -15.820312 5.359375 -19.625 C 5.359375 -23.207031 5.644531 -26.34375 6.21875 -29.03125 C 6.789062 -31.71875 7.6875 -33.945312 8.90625 -35.71875 C 10.125 -37.5 11.679688 -38.832031 13.578125 -39.71875 C 15.484375 -40.601562 17.769531 -41.046875 20.4375 -41.046875 C 25.15625 -41.046875 28.628906 -39.5625 30.859375 -36.59375 C 33.085938 -33.632812 34.203125 -29.25 34.203125 -23.4375 L 34.203125 -20.734375 Z M 30.9375 -23.515625 C 30.882812 -26.253906 30.628906 -28.5625 30.171875 -30.4375 C 29.710938 -32.3125 29.046875 -33.828125 28.171875 -34.984375 C 27.296875 -36.140625 26.210938 -36.976562 24.921875 -37.5 C 23.628906 -38.019531 22.132812 -38.28125 20.4375 -38.28125 C 18.457031 -38.28125 16.753906 -37.988281 15.328125 -37.40625 C 13.910156 -36.820312 12.738281 -35.925781 11.8125 -34.71875 C 10.882812 -33.507812 10.171875 -31.976562 9.671875 -30.125 C 9.179688 -28.28125 8.882812 -26.078125 8.78125 -23.515625 Z M 30.9375 -23.515625 "/></g></g></g><g fill="#16695c" fill-opacity="1"><g transform="translate(375.709523, 205.649023)"><g><path d="M 31.46875 -9.734375 C 31.46875 -8.066406 31.210938 -6.5625 30.703125 -5.21875 C 30.191406 -3.875 29.40625 -2.722656 28.34375 -1.765625 C 27.28125 -0.816406 25.90625 -0.09375 24.21875 0.40625 C 22.53125 0.914062 20.507812 1.171875 18.15625 1.171875 C 16.070312 1.171875 14.273438 0.9375 12.765625 0.46875 C 11.253906 0 9.984375 -0.585938 8.953125 -1.296875 C 7.929688 -2.003906 7.113281 -2.765625 6.5 -3.578125 C 5.894531 -4.390625 5.441406 -5.125 5.140625 -5.78125 L 7.875 -7.5 C 8.257812 -6.6875 8.742188 -5.929688 9.328125 -5.234375 C 9.910156 -4.535156 10.613281 -3.929688 11.4375 -3.421875 C 12.257812 -2.910156 13.210938 -2.507812 14.296875 -2.21875 C 15.390625 -1.925781 16.648438 -1.78125 18.078125 -1.78125 C 19.691406 -1.78125 21.132812 -1.90625 22.40625 -2.15625 C 23.675781 -2.414062 24.734375 -2.84375 25.578125 -3.4375 C 26.429688 -4.039062 27.078125 -4.847656 27.515625 -5.859375 C 27.960938 -6.867188 28.1875 -8.140625 28.1875 -9.671875 C 28.1875 -10.878906 28.046875 -11.925781 27.765625 -12.8125 C 27.492188 -13.707031 26.957031 -14.503906 26.15625 -15.203125 C 25.351562 -15.898438 24.234375 -16.539062 22.796875 -17.125 C 21.367188 -17.707031 19.515625 -18.316406 17.234375 -18.953125 C 14.953125 -19.554688 13.066406 -20.1875 11.578125 -20.84375 C 10.097656 -21.507812 8.929688 -22.28125 8.078125 -23.15625 C 7.234375 -24.03125 6.640625 -25.054688 6.296875 -26.234375 C 5.953125 -27.410156 5.78125 -28.847656 5.78125 -30.546875 C 5.78125 -31.867188 6.023438 -33.15625 6.515625 -34.40625 C 7.015625 -35.664062 7.773438 -36.789062 8.796875 -37.78125 C 9.828125 -38.769531 11.140625 -39.5625 12.734375 -40.15625 C 14.335938 -40.75 16.242188 -41.046875 18.453125 -41.046875 C 20.253906 -41.046875 21.8125 -40.847656 23.125 -40.453125 C 24.445312 -40.066406 25.585938 -39.550781 26.546875 -38.90625 C 27.515625 -38.257812 28.320312 -37.5 28.96875 -36.625 C 29.613281 -35.75 30.164062 -34.84375 30.625 -33.90625 L 27.8125 -32.421875 C 26.84375 -34.398438 25.648438 -35.835938 24.234375 -36.734375 C 22.816406 -37.628906 20.941406 -38.078125 18.609375 -38.078125 C 16.984375 -38.078125 15.570312 -37.894531 14.375 -37.53125 C 13.1875 -37.164062 12.195312 -36.644531 11.40625 -35.96875 C 10.625 -35.300781 10.035156 -34.503906 9.640625 -33.578125 C 9.253906 -32.648438 9.0625 -31.613281 9.0625 -30.46875 C 9.0625 -29.28125 9.164062 -28.257812 9.375 -27.40625 C 9.59375 -26.5625 10.03125 -25.816406 10.6875 -25.171875 C 11.351562 -24.523438 12.289062 -23.941406 13.5 -23.421875 C 14.71875 -22.898438 16.316406 -22.359375 18.296875 -21.796875 C 21.117188 -21.035156 23.382812 -20.257812 25.09375 -19.46875 C 26.800781 -18.6875 28.128906 -17.828125 29.078125 -16.890625 C 30.035156 -15.953125 30.671875 -14.90625 30.984375 -13.75 C 31.304688 -12.59375 31.46875 -11.253906 31.46875 -9.734375 Z M 31.46875 -9.734375 "/></g></g></g></svg>