<svg xmlns="http://www.w3.org/2000/svg" xmlns:xlink="http://www.w3.org/1999/xlink" width="576" zoomAndPan="magnify" viewBox="0 0 432 364.499989" height="486" preserveAspectRatio="xMidYMid meet" version="1.0"><defs><filter x="0%" y="0%" width="100%" height="100%" id="a1d7bec21b"><feColorMatrix values="0 0 0 0 1 0 0 0 0 1 0 0 0 0 1 0 0 0 1 0" color-interpolation-filters="sRGB"/></filter><mask id="eeb0bad884"><g filter="url(#a1d7bec21b)"><rect x="-43.2" width="518.4" fill="#000000" y="-36.449999" height="437.399987" fill-opacity="0.5882"/></g></mask><clipPath id="38492fedab"><path d="M 0.507812 0.199219 L 288.382812 0.199219 L 288.382812 288.070312 L 0.507812 288.070312 Z M 0.507812 0.199219 " clip-rule="nonzero"/></clipPath><clipPath id="0c00f0126d"><path d="M 144.445312 0.199219 C 64.949219 0.199219 0.507812 64.640625 0.507812 144.136719 C 0.507812 223.628906 64.949219 288.070312 144.445312 288.070312 C 223.9375 288.070312 288.382812 223.628906 288.382812 144.136719 C 288.382812 64.640625 223.9375 0.199219 144.445312 0.199219 " clip-rule="nonzero"/></clipPath><clipPath id="a36f35d47d"><rect x="0" width="289" y="0" height="289"/></clipPath><clipPath id="ef1610792a"><path d="M 52 142 L 274 142 L 274 327 L 52 327 Z M 52 142 " clip-rule="nonzero"/></clipPath><clipPath id="b71749ec57"><path d="M 146.65625 379.417969 L -9.699219 290.738281 L 122.582031 57.507812 L 278.9375 146.1875 Z M 146.65625 379.417969 " clip-rule="nonzero"/></clipPath><clipPath id="be54dbb73a"><path d="M 146.65625 379.417969 L -9.699219 290.738281 L 122.582031 57.507812 L 278.9375 146.1875 Z M 146.65625 379.417969 " clip-rule="nonzero"/></clipPath><clipPath id="5ae057e3ff"><path d="M 163 71 L 325 71 L 325 274 L 163 274 Z M 163 71 " clip-rule="nonzero"/></clipPath><clipPath id="d40bbdbb70"><path d="M 134.523438 156.257812 L 318.320312 60.027344 L 395.445312 207.332031 L 211.644531 303.5625 Z M 134.523438 156.257812 " clip-rule="nonzero"/></clipPath><clipPath id="8f0d50d5f1"><path d="M 134.523438 156.257812 L 318.320312 60.027344 L 395.445312 207.332031 L 211.644531 303.5625 Z M 134.523438 156.257812 " clip-rule="nonzero"/></clipPath><clipPath id="6ecaef482e"><path d="M 323.605469 28.675781 L 352.382812 28.675781 L 352.382812 57.449219 L 323.605469 57.449219 Z M 323.605469 28.675781 " clip-rule="nonzero"/></clipPath><clipPath id="d3d4a030f7"><path d="M 337.992188 28.675781 C 330.046875 28.675781 323.605469 35.117188 323.605469 43.0625 C 323.605469 51.007812 330.046875 57.449219 337.992188 57.449219 C 345.941406 57.449219 352.382812 51.007812 352.382812 43.0625 C 352.382812 35.117188 345.941406 28.675781 337.992188 28.675781 " clip-rule="nonzero"/></clipPath></defs><g mask="url(#eeb0bad884)"><g transform="matrix(1, 0, 0, 1, 64, 44)"><g clip-path="url(#a36f35d47d)"><g clip-path="url(#38492fedab)"><g clip-path="url(#0c00f0126d)"><path fill="#b7e1ef" d="M 0.507812 0.199219 L 288.382812 0.199219 L 288.382812 288.070312 L 0.507812 288.070312 Z M 0.507812 0.199219 " fill-opacity="1" fill-rule="nonzero"/></g></g></g></g></g><g clip-path="url(#ef1610792a)"><g clip-path="url(#b71749ec57)"><g clip-path="url(#be54dbb73a)"><path fill="#c57000" d="M 272.4375 142.5 C 272.71875 142.660156 272.925781 142.890625 273.058594 143.1875 C 273.191406 143.484375 273.222656 143.792969 273.15625 144.109375 C 273.125 144.242188 272.449219 147.335938 270.855469 152.453125 C 270.796875 152.640625 270.707031 152.8125 270.578125 152.964844 C 270.453125 153.117188 270.300781 153.238281 270.128906 153.328125 C 269.953125 153.421875 269.765625 153.476562 269.570312 153.496094 C 269.375 153.511719 269.179688 153.492188 268.992188 153.433594 C 268.804688 153.375 268.632812 153.285156 268.484375 153.15625 C 268.332031 153.03125 268.210938 152.878906 268.117188 152.703125 C 268.027344 152.53125 267.972656 152.34375 267.953125 152.148438 C 267.9375 151.949219 267.957031 151.757812 268.015625 151.570312 C 269.566406 146.59375 270.238281 143.511719 270.246094 143.484375 C 270.296875 143.25 270.394531 143.042969 270.546875 142.859375 C 270.695312 142.675781 270.878906 142.535156 271.09375 142.4375 C 271.308594 142.339844 271.535156 142.296875 271.773438 142.308594 C 272.007812 142.320312 272.230469 142.382812 272.4375 142.5 Z M 267.429688 158.777344 C 267.746094 158.957031 267.964844 159.214844 268.089844 159.558594 C 268.214844 159.902344 268.214844 160.242188 268.089844 160.585938 C 267.105469 163.253906 266.039062 165.941406 264.921875 168.566406 C 264.84375 168.746094 264.738281 168.90625 264.59375 169.046875 C 264.453125 169.183594 264.292969 169.292969 264.109375 169.363281 C 263.925781 169.4375 263.738281 169.476562 263.539062 169.472656 C 263.34375 169.472656 263.152344 169.433594 262.972656 169.355469 C 262.789062 169.277344 262.628906 169.171875 262.492188 169.027344 C 262.351562 168.886719 262.246094 168.726562 262.171875 168.542969 C 262.097656 168.359375 262.0625 168.171875 262.066406 167.972656 C 262.066406 167.773438 262.105469 167.585938 262.183594 167.402344 C 263.28125 164.824219 264.328125 162.183594 265.296875 159.558594 C 265.371094 159.351562 265.488281 159.171875 265.640625 159.019531 C 265.796875 158.863281 265.976562 158.75 266.183594 158.671875 C 266.386719 158.597656 266.597656 158.570312 266.816406 158.585938 C 267.035156 158.605469 267.238281 158.667969 267.429688 158.777344 Z M 260.765625 174.4375 C 260.929688 174.53125 261.070312 174.652344 261.1875 174.800781 C 261.308594 174.945312 261.394531 175.109375 261.449219 175.292969 C 261.507812 175.472656 261.527344 175.65625 261.511719 175.84375 C 261.5 176.035156 261.449219 176.210938 261.367188 176.382812 C 260.113281 178.96875 258.789062 181.535156 257.421875 184.011719 C 257.328125 184.1875 257.203125 184.332031 257.046875 184.457031 C 256.894531 184.582031 256.722656 184.667969 256.53125 184.726562 C 256.34375 184.78125 256.152344 184.796875 255.953125 184.773438 C 255.757812 184.753906 255.574219 184.695312 255.402344 184.597656 L 255.386719 184.589844 C 255.214844 184.492188 255.070312 184.367188 254.949219 184.214844 C 254.828125 184.0625 254.742188 183.890625 254.6875 183.703125 C 254.632812 183.511719 254.621094 183.320312 254.640625 183.128906 C 254.664062 182.933594 254.722656 182.75 254.816406 182.578125 C 256.15625 180.144531 257.460938 177.625 258.691406 175.085938 C 258.777344 174.90625 258.894531 174.753906 259.042969 174.621094 C 259.1875 174.492188 259.355469 174.390625 259.542969 174.328125 C 259.730469 174.261719 259.921875 174.234375 260.117188 174.246094 C 260.316406 174.257812 260.503906 174.308594 260.679688 174.394531 C 260.710938 174.410156 260.738281 174.421875 260.765625 174.4375 Z M 252.546875 189.339844 C 252.5625 189.351562 252.582031 189.359375 252.601562 189.371094 C 252.769531 189.476562 252.910156 189.609375 253.023438 189.769531 C 253.140625 189.929688 253.21875 190.105469 253.261719 190.300781 C 253.304688 190.492188 253.3125 190.6875 253.277344 190.882812 C 253.246094 191.078125 253.175781 191.257812 253.070312 191.425781 C 251.539062 193.875 249.933594 196.285156 248.300781 198.582031 C 248.1875 198.738281 248.042969 198.871094 247.878906 198.972656 C 247.710938 199.074219 247.53125 199.140625 247.339844 199.175781 C 247.144531 199.207031 246.953125 199.199219 246.761719 199.15625 C 246.570312 199.109375 246.398438 199.03125 246.238281 198.917969 C 246.078125 198.804688 245.945312 198.664062 245.84375 198.5 C 245.738281 198.335938 245.667969 198.15625 245.632812 197.960938 C 245.601562 197.769531 245.605469 197.578125 245.648438 197.386719 C 245.6875 197.195312 245.765625 197.019531 245.875 196.859375 C 247.476562 194.609375 249.050781 192.25 250.550781 189.847656 C 250.652344 189.683594 250.777344 189.546875 250.933594 189.433594 C 251.089844 189.320312 251.257812 189.238281 251.445312 189.191406 C 251.632812 189.144531 251.820312 189.132812 252.007812 189.160156 C 252.199219 189.183594 252.378906 189.246094 252.546875 189.339844 Z M 242.675781 203.199219 C 242.75 203.242188 242.816406 203.289062 242.882812 203.339844 C 243.035156 203.464844 243.15625 203.613281 243.25 203.789062 C 243.34375 203.960938 243.402344 204.144531 243.421875 204.34375 C 243.441406 204.539062 243.425781 204.730469 243.367188 204.921875 C 243.3125 205.109375 243.222656 205.28125 243.097656 205.433594 C 241.269531 207.683594 239.367188 209.871094 237.441406 211.929688 C 237.308594 212.078125 237.148438 212.191406 236.96875 212.277344 C 236.789062 212.359375 236.601562 212.40625 236.402344 212.414062 C 236.203125 212.421875 236.011719 212.390625 235.824219 212.320312 C 235.636719 212.253906 235.472656 212.148438 235.328125 212.015625 C 235.183594 211.878906 235.070312 211.71875 234.988281 211.539062 C 234.90625 211.359375 234.863281 211.167969 234.855469 210.96875 C 234.851562 210.769531 234.882812 210.578125 234.957031 210.394531 C 235.027344 210.207031 235.132812 210.042969 235.269531 209.898438 C 237.148438 207.886719 239.003906 205.757812 240.789062 203.558594 C 241.015625 203.277344 241.308594 203.101562 241.667969 203.035156 C 242.023438 202.96875 242.359375 203.023438 242.675781 203.203125 Z M 231.054688 215.617188 C 231.261719 215.734375 231.429688 215.890625 231.5625 216.089844 C 231.691406 216.289062 231.769531 216.507812 231.796875 216.742188 C 231.824219 216.980469 231.796875 217.207031 231.714844 217.433594 C 231.628906 217.65625 231.5 217.847656 231.328125 218.007812 C 229.195312 219.972656 226.988281 221.851562 224.757812 223.597656 C 224.601562 223.722656 224.425781 223.816406 224.234375 223.871094 C 224.042969 223.929688 223.847656 223.945312 223.648438 223.921875 C 223.449219 223.902344 223.265625 223.839844 223.089844 223.742188 C 222.914062 223.648438 222.765625 223.519531 222.644531 223.363281 C 222.519531 223.203125 222.433594 223.027344 222.378906 222.835938 C 222.328125 222.640625 222.316406 222.445312 222.339844 222.25 C 222.367188 222.050781 222.429688 221.863281 222.53125 221.691406 C 222.632812 221.519531 222.765625 221.371094 222.925781 221.253906 C 225.089844 219.554688 227.242188 217.726562 229.3125 215.820312 C 229.550781 215.601562 229.828125 215.472656 230.152344 215.433594 C 230.472656 215.398438 230.773438 215.460938 231.054688 215.617188 Z M 113.253906 153.632812 C 113.289062 153.652344 113.324219 153.671875 113.355469 153.695312 L 113.597656 153.863281 C 115.980469 155.496094 118.070312 157.445312 119.871094 159.707031 C 119.996094 159.863281 120.082031 160.035156 120.136719 160.222656 C 120.191406 160.414062 120.207031 160.605469 120.1875 160.804688 C 120.164062 161 120.105469 161.183594 120.007812 161.355469 C 119.914062 161.53125 119.789062 161.679688 119.632812 161.800781 C 119.480469 161.925781 119.304688 162.011719 119.117188 162.066406 C 118.925781 162.121094 118.734375 162.140625 118.539062 162.117188 C 118.339844 162.09375 118.15625 162.035156 117.984375 161.941406 C 117.8125 161.84375 117.664062 161.71875 117.539062 161.566406 C 115.925781 159.535156 114.046875 157.785156 111.90625 156.316406 L 111.683594 156.164062 C 111.523438 156.054688 111.390625 155.921875 111.28125 155.761719 C 111.175781 155.601562 111.101562 155.429688 111.058594 155.238281 C 111.019531 155.050781 111.015625 154.863281 111.046875 154.671875 C 111.082031 154.480469 111.148438 154.304688 111.25 154.140625 C 111.351562 153.976562 111.480469 153.839844 111.636719 153.726562 C 111.792969 153.609375 111.964844 153.53125 112.148438 153.484375 C 112.335938 153.433594 112.527344 153.425781 112.714844 153.449219 C 112.90625 153.476562 113.085938 153.539062 113.253906 153.632812 Z M 105.863281 149.464844 C 106.03125 149.558594 106.171875 149.679688 106.292969 149.832031 C 106.410156 149.980469 106.496094 150.144531 106.550781 150.328125 C 106.609375 150.511719 106.625 150.699219 106.609375 150.890625 C 106.59375 151.082031 106.539062 151.261719 106.453125 151.433594 C 106.367188 151.601562 106.25 151.75 106.105469 151.878906 C 105.964844 152.003906 105.800781 152.097656 105.621094 152.160156 C 105.441406 152.226562 105.253906 152.253906 105.0625 152.246094 C 104.871094 152.238281 104.691406 152.195312 104.515625 152.117188 C 102.023438 150.980469 99.441406 150.121094 96.765625 149.535156 C 96.574219 149.496094 96.394531 149.421875 96.226562 149.308594 C 96.0625 149.199219 95.925781 149.058594 95.820312 148.890625 C 95.710938 148.726562 95.636719 148.546875 95.601562 148.347656 C 95.566406 148.152344 95.566406 147.957031 95.609375 147.765625 C 95.652344 147.570312 95.730469 147.390625 95.84375 147.226562 C 95.957031 147.0625 96.097656 146.929688 96.265625 146.820312 C 96.433594 146.714844 96.613281 146.644531 96.8125 146.609375 C 97.007812 146.574219 97.203125 146.582031 97.394531 146.625 C 100.273438 147.253906 103.054688 148.179688 105.738281 149.402344 C 105.78125 149.421875 105.824219 149.441406 105.863281 149.464844 Z M 89.375 146.03125 C 89.664062 146.195312 89.875 146.429688 90.003906 146.734375 C 90.136719 147.039062 90.164062 147.351562 90.085938 147.675781 C 90.007812 148 89.839844 148.265625 89.582031 148.476562 C 89.324219 148.6875 89.03125 148.800781 88.695312 148.8125 C 85.988281 148.914062 83.351562 149.398438 80.78125 150.261719 C 80.597656 150.324219 80.40625 150.347656 80.210938 150.332031 C 80.011719 150.320312 79.828125 150.269531 79.652344 150.179688 C 79.476562 150.09375 79.324219 149.976562 79.195312 149.828125 C 79.066406 149.679688 78.96875 149.511719 78.90625 149.328125 C 78.84375 149.140625 78.820312 148.949219 78.832031 148.753906 C 78.84375 148.558594 78.894531 148.371094 78.980469 148.195312 C 79.066406 148.019531 79.183594 147.863281 79.332031 147.734375 C 79.476562 147.601562 79.644531 147.507812 79.828125 147.441406 C 82.671875 146.484375 85.585938 145.949219 88.582031 145.839844 C 88.863281 145.828125 89.128906 145.890625 89.371094 146.03125 Z M 123.683594 166.636719 C 123.980469 166.804688 124.195312 167.046875 124.324219 167.363281 C 125.433594 170.09375 126.242188 172.910156 126.75 175.8125 C 126.785156 176.007812 126.78125 176.199219 126.742188 176.390625 C 126.699219 176.585938 126.621094 176.761719 126.507812 176.925781 C 126.398438 177.085938 126.257812 177.222656 126.089844 177.328125 C 125.925781 177.433594 125.746094 177.503906 125.550781 177.542969 C 125.359375 177.578125 125.164062 177.574219 124.972656 177.53125 C 124.78125 177.492188 124.601562 177.414062 124.441406 177.300781 C 124.277344 177.191406 124.144531 177.050781 124.039062 176.886719 C 123.929688 176.71875 123.859375 176.539062 123.824219 176.347656 C 123.351562 173.652344 122.601562 171.035156 121.574219 168.5 C 121.453125 168.207031 121.429688 167.90625 121.5 167.597656 C 121.574219 167.289062 121.726562 167.027344 121.964844 166.816406 C 122.203125 166.605469 122.480469 166.484375 122.796875 166.453125 C 123.113281 166.417969 123.410156 166.480469 123.683594 166.636719 Z M 217.664062 226.085938 C 217.773438 226.152344 217.875 226.226562 217.96875 226.316406 C 218.058594 226.40625 218.136719 226.503906 218.203125 226.613281 C 218.269531 226.722656 218.320312 226.839844 218.355469 226.960938 C 218.390625 227.082031 218.410156 227.207031 218.414062 227.335938 C 218.417969 227.464844 218.40625 227.589844 218.378906 227.714844 C 218.351562 227.839844 218.304688 227.957031 218.246094 228.070312 C 218.1875 228.183594 218.117188 228.289062 218.03125 228.382812 C 217.945312 228.476562 217.847656 228.558594 217.742188 228.628906 C 215.328125 230.207031 212.828125 231.691406 210.3125 233.03125 C 210.140625 233.121094 209.957031 233.175781 209.761719 233.191406 C 209.566406 233.207031 209.378906 233.1875 209.191406 233.128906 C 209.003906 233.070312 208.835938 232.976562 208.6875 232.855469 C 208.539062 232.730469 208.417969 232.582031 208.324219 232.410156 C 208.234375 232.238281 208.179688 232.054688 208.15625 231.859375 C 208.136719 231.664062 208.15625 231.472656 208.210938 231.289062 C 208.265625 231.101562 208.355469 230.929688 208.476562 230.777344 C 208.597656 230.625 208.746094 230.5 208.914062 230.40625 C 211.351562 229.105469 213.773438 227.667969 216.117188 226.136719 C 216.347656 225.984375 216.605469 225.902344 216.882812 225.894531 C 217.160156 225.886719 217.421875 225.949219 217.664062 226.085938 Z M 73.535156 151.484375 C 73.644531 151.546875 73.742188 151.617188 73.832031 151.703125 C 73.921875 151.789062 73.996094 151.886719 74.0625 151.992188 C 74.128906 152.09375 74.179688 152.207031 74.21875 152.324219 C 74.253906 152.441406 74.277344 152.5625 74.285156 152.6875 C 74.292969 152.808594 74.285156 152.933594 74.261719 153.054688 C 74.238281 153.175781 74.203125 153.292969 74.148438 153.40625 C 74.097656 153.519531 74.03125 153.621094 73.953125 153.71875 C 73.875 153.8125 73.785156 153.898438 73.6875 153.972656 C 71.523438 155.582031 69.675781 157.496094 68.144531 159.714844 C 68.03125 159.878906 67.894531 160.011719 67.726562 160.117188 C 67.5625 160.222656 67.382812 160.292969 67.1875 160.328125 C 66.996094 160.363281 66.804688 160.359375 66.613281 160.316406 C 66.417969 160.277344 66.242188 160.199219 66.082031 160.089844 C 65.921875 159.976562 65.785156 159.839844 65.679688 159.675781 C 65.570312 159.511719 65.5 159.332031 65.464844 159.136719 C 65.429688 158.945312 65.429688 158.753906 65.46875 158.5625 C 65.511719 158.367188 65.585938 158.191406 65.695312 158.027344 C 67.414062 155.539062 69.484375 153.390625 71.910156 151.585938 C 72.148438 151.410156 72.414062 151.3125 72.710938 151.292969 C 73.003906 151.273438 73.28125 151.339844 73.535156 151.484375 Z M 126.867188 183.242188 C 127.351562 183.515625 127.605469 183.933594 127.621094 184.496094 C 127.695312 187.390625 127.609375 190.28125 127.375 193.167969 C 127.355469 193.363281 127.304688 193.550781 127.214844 193.726562 C 127.125 193.902344 127.003906 194.050781 126.855469 194.179688 C 126.703125 194.308594 126.535156 194.402344 126.347656 194.464844 C 126.160156 194.523438 125.96875 194.546875 125.769531 194.53125 C 125.574219 194.515625 125.390625 194.464844 125.214844 194.375 C 125.039062 194.285156 124.886719 194.164062 124.757812 194.015625 C 124.628906 193.863281 124.535156 193.695312 124.476562 193.507812 C 124.414062 193.320312 124.390625 193.128906 124.40625 192.933594 C 124.636719 190.152344 124.714844 187.371094 124.644531 184.585938 C 124.636719 184.316406 124.699219 184.0625 124.828125 183.828125 C 124.957031 183.589844 125.136719 183.402344 125.367188 183.265625 C 125.597656 183.125 125.847656 183.054688 126.113281 183.050781 C 126.382812 183.046875 126.632812 183.109375 126.867188 183.242188 Z M 202.679688 234.085938 C 202.925781 234.226562 203.117188 234.421875 203.25 234.667969 C 203.386719 234.917969 203.445312 235.183594 203.429688 235.46875 C 203.410156 235.75 203.320312 236.007812 203.15625 236.238281 C 202.996094 236.472656 202.78125 236.640625 202.519531 236.753906 C 199.886719 237.867188 197.160156 238.875 194.425781 239.75 C 194.234375 239.8125 194.039062 239.839844 193.839844 239.824219 C 193.640625 239.8125 193.453125 239.757812 193.273438 239.667969 C 193.097656 239.578125 192.941406 239.457031 192.8125 239.304688 C 192.683594 239.152344 192.585938 238.984375 192.527344 238.792969 C 192.464844 238.601562 192.445312 238.40625 192.464844 238.207031 C 192.480469 238.007812 192.535156 237.820312 192.628906 237.644531 C 192.722656 237.46875 192.847656 237.316406 193.003906 237.1875 C 193.15625 237.0625 193.332031 236.96875 193.523438 236.914062 C 196.171875 236.066406 198.8125 235.089844 201.367188 234.007812 C 201.816406 233.820312 202.253906 233.84375 202.679688 234.085938 Z M 64.058594 165.246094 C 64.355469 165.417969 64.570312 165.660156 64.699219 165.976562 C 64.828125 166.292969 64.847656 166.617188 64.753906 166.949219 C 64.023438 169.550781 63.703125 172.207031 63.792969 174.910156 C 63.796875 175.105469 63.765625 175.296875 63.695312 175.480469 C 63.625 175.664062 63.523438 175.828125 63.386719 175.972656 C 63.253906 176.117188 63.09375 176.230469 62.914062 176.308594 C 62.734375 176.390625 62.546875 176.433594 62.351562 176.441406 C 62.152344 176.445312 61.960938 176.414062 61.777344 176.34375 C 61.59375 176.277344 61.429688 176.171875 61.285156 176.039062 C 61.144531 175.902344 61.03125 175.746094 60.949219 175.566406 C 60.867188 175.386719 60.824219 175.199219 60.820312 175 C 60.71875 171.992188 61.078125 169.039062 61.890625 166.136719 C 61.953125 165.917969 62.058594 165.722656 62.210938 165.550781 C 62.363281 165.382812 62.546875 165.253906 62.757812 165.164062 C 62.96875 165.078125 63.1875 165.042969 63.417969 165.054688 C 63.644531 165.070312 63.859375 165.132812 64.058594 165.246094 Z M 125.582031 200.207031 C 125.855469 200.363281 126.058594 200.578125 126.191406 200.859375 C 126.324219 201.140625 126.367188 201.433594 126.316406 201.742188 C 125.878906 204.457031 125.320312 207.304688 124.660156 210.199219 C 124.621094 210.398438 124.546875 210.578125 124.433594 210.746094 C 124.320312 210.910156 124.179688 211.046875 124.011719 211.15625 C 123.84375 211.265625 123.660156 211.339844 123.460938 211.375 C 123.265625 211.410156 123.066406 211.40625 122.871094 211.359375 C 122.675781 211.316406 122.496094 211.234375 122.332031 211.117188 C 122.171875 211.003906 122.035156 210.859375 121.933594 210.6875 C 121.828125 210.515625 121.761719 210.332031 121.730469 210.132812 C 121.699219 209.933594 121.710938 209.738281 121.761719 209.542969 C 122.40625 206.707031 122.949219 203.921875 123.382812 201.269531 C 123.402344 201.148438 123.433594 201.035156 123.480469 200.925781 C 123.527344 200.8125 123.585938 200.710938 123.660156 200.613281 C 123.730469 200.519531 123.8125 200.433594 123.90625 200.355469 C 124 200.28125 124.097656 200.214844 124.207031 200.164062 C 124.316406 200.109375 124.429688 200.074219 124.546875 200.046875 C 124.664062 200.023438 124.78125 200.011719 124.902344 200.015625 C 125.023438 200.019531 125.140625 200.039062 125.253906 200.070312 C 125.371094 200.105469 125.480469 200.152344 125.585938 200.210938 Z M 186.507812 239.253906 C 186.773438 239.40625 186.976562 239.621094 187.113281 239.894531 C 187.246094 240.171875 187.292969 240.464844 187.246094 240.769531 C 187.199219 241.074219 187.070312 241.339844 186.859375 241.566406 C 186.652344 241.789062 186.394531 241.9375 186.09375 242.003906 C 183.324219 242.621094 180.464844 243.132812 177.605469 243.519531 C 177.410156 243.542969 177.21875 243.53125 177.03125 243.476562 C 176.839844 243.425781 176.667969 243.339844 176.511719 243.222656 C 176.359375 243.101562 176.230469 242.957031 176.132812 242.789062 C 176.035156 242.617188 175.972656 242.433594 175.945312 242.242188 C 175.921875 242.046875 175.933594 241.855469 175.980469 241.664062 C 176.03125 241.472656 176.117188 241.300781 176.234375 241.144531 C 176.351562 240.988281 176.496094 240.859375 176.667969 240.757812 C 176.835938 240.660156 177.015625 240.59375 177.210938 240.566406 C 179.988281 240.191406 182.757812 239.699219 185.449219 239.097656 C 185.820312 239.011719 186.175781 239.066406 186.507812 239.253906 Z M 169.683594 241.539062 C 169.972656 241.703125 170.183594 241.933594 170.316406 242.238281 C 170.449219 242.539062 170.476562 242.851562 170.398438 243.175781 C 170.324219 243.496094 170.160156 243.765625 169.90625 243.976562 C 169.652344 244.1875 169.359375 244.304688 169.027344 244.320312 C 166.210938 244.472656 163.316406 244.515625 160.425781 244.453125 C 160.226562 244.453125 160.035156 244.410156 159.851562 244.332031 C 159.667969 244.253906 159.507812 244.144531 159.371094 244 C 159.230469 243.859375 159.125 243.695312 159.054688 243.507812 C 158.980469 243.324219 158.945312 243.128906 158.949219 242.933594 C 158.957031 242.734375 159 242.542969 159.078125 242.359375 C 159.160156 242.175781 159.273438 242.019531 159.417969 241.882812 C 159.5625 241.746094 159.730469 241.640625 159.914062 241.570312 C 160.101562 241.5 160.292969 241.46875 160.492188 241.476562 C 163.3125 241.539062 166.132812 241.492188 168.871094 241.347656 C 169.164062 241.332031 169.433594 241.394531 169.683594 241.539062 Z M 64.441406 182.019531 C 64.785156 182.214844 65.015625 182.503906 65.128906 182.882812 C 65.933594 185.5 67.007812 188 68.351562 190.382812 C 68.449219 190.554688 68.515625 190.742188 68.539062 190.941406 C 68.566406 191.136719 68.550781 191.332031 68.5 191.527344 C 68.445312 191.71875 68.359375 191.894531 68.234375 192.050781 C 68.113281 192.207031 67.964844 192.335938 67.789062 192.433594 C 67.613281 192.53125 67.429688 192.589844 67.230469 192.613281 C 67.03125 192.636719 66.835938 192.617188 66.644531 192.5625 C 66.453125 192.507812 66.28125 192.414062 66.125 192.289062 C 65.972656 192.164062 65.847656 192.011719 65.753906 191.835938 C 64.304688 189.265625 63.148438 186.570312 62.28125 183.746094 C 62.191406 183.457031 62.191406 183.164062 62.28125 182.875 C 62.371094 182.582031 62.535156 182.34375 62.773438 182.152344 C 63.011719 181.960938 63.28125 181.855469 63.585938 181.828125 C 63.890625 181.804688 64.175781 181.867188 64.4375 182.019531 Z M 121.835938 216.839844 C 122.132812 217.007812 122.347656 217.25 122.476562 217.566406 C 122.609375 217.882812 122.625 218.207031 122.53125 218.539062 C 121.78125 221.207031 120.9375 223.972656 120.027344 226.753906 C 119.964844 226.945312 119.871094 227.117188 119.742188 227.265625 C 119.613281 227.417969 119.460938 227.539062 119.285156 227.632812 C 119.109375 227.722656 118.921875 227.777344 118.722656 227.792969 C 118.523438 227.808594 118.332031 227.785156 118.144531 227.722656 C 117.953125 227.660156 117.785156 227.566406 117.632812 227.433594 C 117.484375 227.304688 117.363281 227.152344 117.277344 226.972656 C 117.1875 226.796875 117.136719 226.609375 117.121094 226.410156 C 117.109375 226.210938 117.132812 226.019531 117.199219 225.828125 C 118.097656 223.085938 118.929688 220.363281 119.667969 217.730469 C 119.722656 217.542969 119.808594 217.371094 119.933594 217.214844 C 120.054688 217.058594 120.203125 216.933594 120.375 216.835938 C 120.546875 216.738281 120.730469 216.679688 120.925781 216.65625 C 121.121094 216.632812 121.3125 216.648438 121.503906 216.699219 C 121.621094 216.734375 121.730469 216.78125 121.835938 216.839844 Z M 152.710938 241.1875 C 153.015625 241.359375 153.234375 241.609375 153.363281 241.933594 C 153.492188 242.261719 153.503906 242.59375 153.398438 242.925781 C 153.292969 243.261719 153.09375 243.527344 152.804688 243.722656 C 152.511719 243.914062 152.191406 243.996094 151.839844 243.964844 C 150.019531 243.800781 148.164062 243.59375 146.324219 243.347656 C 146.300781 243.34375 146.28125 243.339844 146.257812 243.335938 C 146.210938 243.328125 145.140625 243.136719 143.226562 242.679688 C 143.039062 242.628906 142.863281 242.546875 142.707031 242.433594 C 142.550781 242.316406 142.417969 242.171875 142.320312 242.007812 C 142.21875 241.839844 142.152344 241.65625 142.121094 241.464844 C 142.089844 241.269531 142.097656 241.078125 142.144531 240.886719 C 142.191406 240.699219 142.269531 240.523438 142.386719 240.363281 C 142.5 240.203125 142.640625 240.074219 142.804688 239.96875 C 142.972656 239.867188 143.152344 239.796875 143.347656 239.765625 C 143.539062 239.734375 143.730469 239.738281 143.921875 239.78125 C 145.566406 240.175781 146.570312 240.367188 146.753906 240.402344 C 148.542969 240.636719 150.347656 240.839844 152.113281 241 C 152.328125 241.019531 152.527344 241.082031 152.714844 241.1875 Z M 72.5625 196.832031 C 72.726562 196.925781 72.867188 197.046875 72.984375 197.195312 C 73.6875 198.066406 74.445312 198.945312 75.230469 199.8125 C 76.328125 201.011719 77.460938 202.207031 78.605469 203.363281 C 78.742188 203.503906 78.851562 203.664062 78.925781 203.847656 C 79 204.03125 79.035156 204.21875 79.035156 204.417969 C 79.03125 204.613281 78.992188 204.804688 78.917969 204.984375 C 78.839844 205.167969 78.730469 205.328125 78.59375 205.46875 C 78.453125 205.605469 78.289062 205.710938 78.109375 205.789062 C 77.925781 205.863281 77.734375 205.898438 77.539062 205.898438 C 77.339844 205.898438 77.152344 205.859375 76.96875 205.78125 C 76.789062 205.707031 76.628906 205.597656 76.488281 205.457031 C 75.316406 204.273438 74.152344 203.046875 73.03125 201.816406 C 72.207031 200.910156 71.410156 199.984375 70.667969 199.066406 C 70.445312 198.789062 70.332031 198.46875 70.335938 198.113281 C 70.34375 197.753906 70.460938 197.4375 70.691406 197.164062 C 70.921875 196.894531 71.214844 196.726562 71.566406 196.664062 C 71.917969 196.601562 72.25 196.65625 72.5625 196.832031 Z M 136.121094 237.652344 C 136.28125 237.742188 136.417969 237.859375 136.535156 238 C 136.652344 238.144531 136.742188 238.300781 136.800781 238.476562 C 136.855469 238.652344 136.882812 238.828125 136.875 239.015625 C 136.867188 239.199219 136.824219 239.375 136.75 239.542969 C 136.675781 239.710938 136.578125 239.863281 136.445312 239.992188 C 136.316406 240.125 136.167969 240.226562 136.003906 240.304688 C 135.835938 240.378906 135.660156 240.425781 135.476562 240.433594 C 135.292969 240.445312 135.113281 240.421875 134.9375 240.367188 C 132.253906 239.523438 129.523438 238.578125 126.824219 237.550781 C 126.636719 237.480469 126.472656 237.378906 126.324219 237.246094 C 126.179688 237.109375 126.066406 236.953125 125.984375 236.769531 C 125.902344 236.589844 125.855469 236.402344 125.851562 236.203125 C 125.84375 236.003906 125.875 235.8125 125.949219 235.625 C 126.019531 235.4375 126.121094 235.273438 126.257812 235.128906 C 126.394531 234.984375 126.554688 234.871094 126.734375 234.792969 C 126.917969 234.710938 127.109375 234.667969 127.304688 234.664062 C 127.503906 234.660156 127.695312 234.695312 127.882812 234.765625 C 130.53125 235.769531 133.207031 236.699219 135.832031 237.527344 C 135.933594 237.558594 136.027344 237.601562 136.121094 237.652344 Z M 84.46875 208.945312 C 84.558594 208.996094 84.640625 209.058594 84.71875 209.125 C 86.796875 210.957031 88.976562 212.753906 91.203125 214.464844 C 91.359375 214.585938 91.484375 214.730469 91.585938 214.902344 C 91.683594 215.074219 91.746094 215.257812 91.769531 215.453125 C 91.796875 215.648438 91.78125 215.84375 91.730469 216.035156 C 91.679688 216.222656 91.59375 216.398438 91.472656 216.554688 C 91.351562 216.710938 91.207031 216.839844 91.035156 216.9375 C 90.863281 217.035156 90.679688 217.097656 90.484375 217.125 C 90.289062 217.148438 90.097656 217.136719 89.90625 217.085938 C 89.714844 217.035156 89.542969 216.949219 89.386719 216.828125 C 87.109375 215.074219 84.875 213.234375 82.75 211.363281 C 82.613281 211.242188 82.5 211.097656 82.414062 210.9375 C 82.328125 210.773438 82.273438 210.601562 82.253906 210.417969 C 82.234375 210.234375 82.246094 210.054688 82.292969 209.875 C 82.335938 209.695312 82.414062 209.53125 82.519531 209.382812 C 82.625 209.230469 82.757812 209.105469 82.910156 209.003906 C 83.0625 208.902344 83.230469 208.828125 83.410156 208.789062 C 83.589844 208.75 83.769531 208.742188 83.953125 208.769531 C 84.136719 208.796875 84.308594 208.855469 84.46875 208.949219 Z M 120.226562 231.625 C 120.394531 231.71875 120.535156 231.839844 120.65625 231.992188 C 120.773438 232.140625 120.863281 232.308594 120.917969 232.488281 C 120.972656 232.671875 120.992188 232.859375 120.976562 233.050781 C 120.957031 233.242188 120.90625 233.421875 120.820312 233.59375 C 120.734375 233.761719 120.621094 233.910156 120.476562 234.039062 C 120.332031 234.164062 120.171875 234.261719 119.992188 234.324219 C 119.808594 234.386719 119.625 234.417969 119.433594 234.410156 C 119.242188 234.402344 119.058594 234.359375 118.886719 234.28125 C 118.242188 233.996094 117.601562 233.707031 116.960938 233.410156 C 117.316406 233.847656 117.398438 234.332031 117.203125 234.863281 C 116.230469 237.496094 115.1875 240.1875 114.101562 242.863281 C 114.027344 243.046875 113.921875 243.207031 113.78125 243.351562 C 113.644531 243.492188 113.484375 243.601562 113.300781 243.675781 C 113.121094 243.753906 112.929688 243.792969 112.730469 243.796875 C 112.535156 243.796875 112.34375 243.761719 112.160156 243.6875 C 111.976562 243.613281 111.816406 243.503906 111.675781 243.367188 C 111.535156 243.226562 111.425781 243.066406 111.351562 242.886719 C 111.273438 242.703125 111.234375 242.511719 111.234375 242.316406 C 111.234375 242.117188 111.269531 241.925781 111.34375 241.742188 C 112.417969 239.097656 113.449219 236.4375 114.410156 233.835938 C 114.515625 233.546875 114.695312 233.3125 114.945312 233.132812 C 115.195312 232.957031 115.476562 232.863281 115.785156 232.859375 C 114.214844 232.121094 112.664062 231.355469 111.144531 230.574219 C 110.964844 230.484375 110.8125 230.363281 110.683594 230.214844 C 110.554688 230.0625 110.460938 229.894531 110.402344 229.703125 C 110.339844 229.515625 110.316406 229.324219 110.332031 229.125 C 110.347656 228.929688 110.402344 228.742188 110.492188 228.566406 C 110.582031 228.386719 110.703125 228.234375 110.855469 228.109375 C 111.007812 227.980469 111.179688 227.886719 111.367188 227.824219 C 111.554688 227.765625 111.75 227.746094 111.945312 227.761719 C 112.144531 227.777344 112.328125 227.832031 112.503906 227.925781 C 114.976562 229.195312 117.53125 230.417969 120.097656 231.558594 C 120.140625 231.578125 120.183594 231.601562 120.226562 231.625 Z M 97.921875 219.316406 C 97.957031 219.335938 97.992188 219.355469 98.023438 219.378906 C 100.316406 220.925781 102.710938 222.4375 105.132812 223.867188 C 105.304688 223.964844 105.449219 224.09375 105.566406 224.253906 C 105.683594 224.410156 105.769531 224.585938 105.816406 224.773438 C 105.867188 224.964844 105.878906 225.160156 105.847656 225.355469 C 105.820312 225.550781 105.757812 225.734375 105.65625 225.902344 C 105.558594 226.074219 105.429688 226.21875 105.269531 226.335938 C 105.113281 226.453125 104.9375 226.539062 104.75 226.589844 C 104.558594 226.636719 104.363281 226.648438 104.167969 226.621094 C 103.972656 226.59375 103.792969 226.53125 103.621094 226.433594 C 101.144531 224.972656 98.703125 223.429688 96.355469 221.851562 C 96.199219 221.742188 96.0625 221.609375 95.957031 221.449219 C 95.847656 221.289062 95.773438 221.117188 95.734375 220.929688 C 95.691406 220.738281 95.6875 220.550781 95.722656 220.359375 C 95.753906 220.171875 95.820312 219.996094 95.921875 219.832031 C 96.023438 219.667969 96.152344 219.527344 96.308594 219.414062 C 96.460938 219.300781 96.632812 219.21875 96.820312 219.171875 C 97.007812 219.125 97.195312 219.113281 97.386719 219.136719 C 97.578125 219.164062 97.757812 219.222656 97.921875 219.316406 Z M 110.125 248.863281 C 110.285156 248.957031 110.425781 249.074219 110.539062 249.214844 C 110.65625 249.359375 110.746094 249.515625 110.800781 249.691406 C 110.859375 249.867188 110.882812 250.046875 110.875 250.230469 C 110.867188 250.417969 110.824219 250.59375 110.75 250.761719 C 109.566406 253.4375 108.355469 256.0625 107.148438 258.5625 C 107.0625 258.738281 106.945312 258.890625 106.796875 259.023438 C 106.652344 259.152344 106.484375 259.25 106.296875 259.3125 C 106.113281 259.378906 105.921875 259.402344 105.726562 259.390625 C 105.53125 259.378906 105.34375 259.332031 105.167969 259.246094 C 104.992188 259.164062 104.835938 259.046875 104.707031 258.902344 C 104.574219 258.753906 104.476562 258.589844 104.410156 258.40625 C 104.347656 258.21875 104.320312 258.027344 104.328125 257.832031 C 104.339844 257.636719 104.386719 257.449219 104.46875 257.273438 C 105.660156 254.800781 106.855469 252.207031 108.03125 249.558594 C 108.113281 249.363281 108.234375 249.199219 108.390625 249.058594 C 108.546875 248.914062 108.726562 248.8125 108.925781 248.746094 C 109.125 248.679688 109.328125 248.65625 109.539062 248.675781 C 109.746094 248.699219 109.941406 248.761719 110.125 248.863281 Z M 102.71875 264.273438 C 102.886719 264.371094 103.03125 264.496094 103.148438 264.644531 C 103.269531 264.796875 103.359375 264.96875 103.410156 265.152344 C 103.464844 265.339844 103.484375 265.527344 103.464844 265.722656 C 103.445312 265.914062 103.386719 266.097656 103.296875 266.265625 C 102.78125 267.242188 102.214844 268.277344 101.609375 269.34375 C 100.808594 270.757812 99.9375 272.234375 99.019531 273.734375 C 98.914062 273.902344 98.785156 274.042969 98.625 274.160156 C 98.464844 274.273438 98.289062 274.355469 98.097656 274.402344 C 97.90625 274.449219 97.710938 274.457031 97.519531 274.425781 C 97.324219 274.394531 97.140625 274.328125 96.972656 274.226562 C 96.804688 274.121094 96.664062 273.992188 96.546875 273.832031 C 96.429688 273.671875 96.351562 273.496094 96.304688 273.304688 C 96.257812 273.113281 96.25 272.917969 96.28125 272.722656 C 96.3125 272.53125 96.378906 272.347656 96.480469 272.179688 C 97.378906 270.710938 98.234375 269.261719 99.019531 267.875 C 99.609375 266.832031 100.164062 265.824219 100.664062 264.875 C 100.757812 264.703125 100.878906 264.550781 101.03125 264.425781 C 101.183594 264.300781 101.351562 264.207031 101.542969 264.148438 C 101.730469 264.089844 101.921875 264.070312 102.117188 264.089844 C 102.316406 264.109375 102.5 264.164062 102.675781 264.253906 Z M 93.871094 278.8125 C 93.90625 278.832031 93.941406 278.851562 93.972656 278.875 C 94.136719 278.984375 94.273438 279.125 94.382812 279.289062 C 94.488281 279.453125 94.5625 279.632812 94.601562 279.824219 C 94.636719 280.019531 94.636719 280.214844 94.597656 280.40625 C 94.558594 280.601562 94.480469 280.777344 94.371094 280.941406 C 92.8125 283.253906 91.152344 285.609375 89.441406 287.949219 C 89.324219 288.105469 89.179688 288.238281 89.011719 288.339844 C 88.84375 288.441406 88.660156 288.507812 88.464844 288.539062 C 88.269531 288.566406 88.078125 288.558594 87.886719 288.511719 C 87.695312 288.464844 87.519531 288.382812 87.359375 288.265625 C 87.203125 288.152344 87.070312 288.007812 86.96875 287.839844 C 86.867188 287.671875 86.800781 287.488281 86.769531 287.296875 C 86.742188 287.101562 86.75 286.90625 86.796875 286.714844 C 86.84375 286.523438 86.921875 286.347656 87.039062 286.1875 C 88.730469 283.882812 90.367188 281.554688 91.90625 279.277344 C 92.011719 279.121094 92.140625 278.992188 92.292969 278.882812 C 92.449219 278.777344 92.617188 278.703125 92.800781 278.660156 C 92.980469 278.617188 93.164062 278.609375 93.351562 278.632812 C 93.535156 278.660156 93.710938 278.71875 93.871094 278.8125 Z M 83.828125 292.550781 C 84.015625 292.65625 84.175781 292.796875 84.300781 292.972656 C 84.425781 293.148438 84.511719 293.34375 84.554688 293.558594 C 84.597656 293.769531 84.589844 293.980469 84.539062 294.191406 C 84.488281 294.40625 84.398438 294.59375 84.261719 294.765625 C 82.527344 296.976562 80.710938 299.210938 78.871094 301.410156 C 78.742188 301.5625 78.589844 301.683594 78.417969 301.773438 C 78.242188 301.867188 78.054688 301.917969 77.859375 301.9375 C 77.664062 301.953125 77.46875 301.933594 77.28125 301.875 C 77.09375 301.816406 76.925781 301.722656 76.773438 301.59375 C 76.621094 301.46875 76.5 301.316406 76.410156 301.140625 C 76.320312 300.96875 76.265625 300.78125 76.246094 300.585938 C 76.230469 300.386719 76.25 300.195312 76.3125 300.007812 C 76.371094 299.820312 76.464844 299.648438 76.589844 299.496094 C 78.414062 297.320312 80.207031 295.109375 81.925781 292.925781 C 82.152344 292.636719 82.445312 292.457031 82.804688 292.386719 C 83.167969 292.3125 83.507812 292.367188 83.828125 292.546875 Z M 72.902344 305.597656 C 72.992188 305.648438 73.078125 305.710938 73.15625 305.78125 C 73.304688 305.910156 73.421875 306.066406 73.507812 306.242188 C 73.59375 306.421875 73.640625 306.609375 73.652344 306.804688 C 73.664062 307.003906 73.636719 307.195312 73.570312 307.382812 C 73.507812 307.566406 73.410156 307.734375 73.277344 307.882812 C 71.402344 309.988281 69.460938 312.113281 67.507812 314.191406 C 67.371094 314.332031 67.210938 314.441406 67.035156 314.519531 C 66.855469 314.597656 66.667969 314.640625 66.472656 314.644531 C 66.277344 314.648438 66.085938 314.617188 65.90625 314.546875 C 65.722656 314.476562 65.558594 314.375 65.417969 314.242188 C 65.277344 314.109375 65.164062 313.953125 65.082031 313.773438 C 65.003906 313.597656 64.957031 313.410156 64.953125 313.214844 C 64.945312 313.019531 64.972656 312.828125 65.042969 312.644531 C 65.109375 312.460938 65.207031 312.296875 65.339844 312.152344 C 67.277344 310.09375 69.199219 307.992188 71.058594 305.90625 C 71.289062 305.640625 71.578125 305.484375 71.925781 305.425781 C 72.269531 305.367188 72.59375 305.425781 72.902344 305.597656 Z M 61.246094 317.996094 C 61.445312 318.113281 61.613281 318.265625 61.742188 318.457031 C 61.871094 318.648438 61.953125 318.859375 61.984375 319.089844 C 62.015625 319.320312 61.996094 319.542969 61.921875 319.765625 C 61.847656 319.984375 61.730469 320.175781 61.566406 320.34375 C 59.578125 322.347656 57.527344 324.363281 55.46875 326.332031 C 55.328125 326.476562 55.164062 326.589844 54.976562 326.667969 C 54.792969 326.746094 54.597656 326.785156 54.394531 326.785156 C 54.191406 326.785156 54 326.746094 53.8125 326.664062 C 53.628906 326.585938 53.464844 326.472656 53.324219 326.328125 C 53.1875 326.179688 53.078125 326.011719 53.007812 325.824219 C 52.9375 325.632812 52.90625 325.4375 52.914062 325.238281 C 52.921875 325.035156 52.96875 324.84375 53.058594 324.660156 C 53.144531 324.476562 53.261719 324.316406 53.414062 324.183594 C 55.453125 322.230469 57.488281 320.230469 59.457031 318.246094 C 59.691406 318.007812 59.976562 317.867188 60.308594 317.820312 C 60.640625 317.773438 60.953125 317.832031 61.246094 317.996094 Z M 61.246094 317.996094 " fill-opacity="1" fill-rule="nonzero"/></g></g></g><g clip-path="url(#5ae057e3ff)"><g clip-path="url(#d40bbdbb70)"><g clip-path="url(#8f0d50d5f1)"><path fill="#c57000" d="M 319.671875 73.414062 C 326.070312 77.476562 331.65625 85.667969 301.820312 132.820312 C 300.976562 134.160156 300.105469 135.519531 299.222656 136.898438 L 324.890625 233.867188 L 315.015625 249.480469 L 273.699219 174.367188 C 256.804688 197.984375 248.117188 206.332031 235.765625 219.210938 L 248.652344 259.292969 L 239.886719 273.15625 L 216.398438 237.175781 L 173.894531 231.257812 L 182.664062 217.402344 L 223.742188 212.035156 C 230.023438 195.417969 233.867188 183.914062 248.027344 158.417969 L 163.1875 153.089844 L 173.0625 137.472656 L 270.835938 119.476562 C 271.789062 117.925781 272.742188 116.425781 273.675781 114.945312 C 303.503906 67.792969 313.285156 69.359375 319.671875 73.414062 Z M 319.671875 73.414062 " fill-opacity="1" fill-rule="evenodd"/></g></g></g><g clip-path="url(#6ecaef482e)"><g clip-path="url(#d3d4a030f7)"><path fill="#c57000" d="M 323.605469 28.675781 L 352.382812 28.675781 L 352.382812 57.449219 L 323.605469 57.449219 Z M 323.605469 28.675781 " fill-opacity="1" fill-rule="nonzero"/></g></g></svg>