<svg width="862" height="427" viewBox="0 0 862 427" fill="none" xmlns="http://www.w3.org/2000/svg">
<path d="M778.405 114.729C775.373 114.329 772.351 113.523 769.121 113.123C769.724 111.907 770.739 110.701 771.347 109.49C772.554 109.089 774.769 108.887 776.189 108.689C777.802 108.486 777.802 108.486 780.017 108.081C781.437 102.644 783.85 97.2116 787.288 92.7724C778.405 90.5631 769.521 89.5547 760.643 89.5547C760.643 88.5515 760.238 87.3403 760.238 86.1343C764.679 84.9283 768.918 83.9147 773.563 83.109C780.631 82.1005 787.689 81.0973 794.747 80.0888C796.973 74.0434 801.212 69.417 807.063 65.9862M781.437 116.544C783.45 118.956 785.473 121.373 787.486 123.795C788.089 122.589 788.896 121.17 789.504 119.964C789.098 118.758 788.495 116.746 787.892 115.338C787.288 113.929 787.288 113.929 786.482 111.704C790.518 107.883 794.143 103.044 796.167 97.8146C802.621 104.26 807.869 111.501 812.311 119.158C813.315 118.758 814.537 118.353 815.338 117.75C814.121 113.326 812.914 109.089 811.302 104.661C808.675 98.0121 806.054 91.3637 803.427 84.9283C807.469 80.0888 809.482 73.8459 809.482 67.4053M781.437 116.544C780.428 115.941 779.414 115.338 778.405 114.729L781.437 116.544ZM809.482 67.4053C809.482 67.0051 809.076 66.3917 808.675 66.189C808.27 65.9862 807.666 65.7887 807.063 65.9862M805.451 67.4053L778.202 114.532L781.635 116.544L808.878 69.417L805.451 67.4053ZM805.856 67.2026C805.248 68.211 805.451 69.6197 806.257 70.02C807.063 70.4255 808.27 70.02 808.878 69.0168C809.482 68.0083 809.279 66.5996 808.473 66.189C807.666 65.7887 806.46 66.189 805.856 67.2026Z" fill="#DF8612"/>
<path d="M778.405 114.729C775.373 114.329 772.351 113.523 769.121 113.123C769.724 111.907 770.739 110.701 771.347 109.49C772.554 109.089 774.769 108.887 776.189 108.689C777.802 108.486 777.802 108.486 780.017 108.081C781.437 102.644 783.85 97.2116 787.288 92.7724C778.405 90.5631 769.521 89.5547 760.643 89.5547C760.643 88.5515 760.238 87.3403 760.238 86.1343C764.679 84.9283 768.918 83.9147 773.563 83.109C780.631 82.1005 787.689 81.0973 794.747 80.0888C796.973 74.0434 801.212 69.417 807.063 65.9862C807.666 65.7887 808.27 65.9862 808.675 66.189C809.076 66.3917 809.482 67.0051 809.482 67.4053C809.482 73.8459 807.469 80.0888 803.427 84.9283C806.054 91.3637 808.675 98.0121 811.302 104.661C812.914 109.089 814.121 113.326 815.338 117.75C814.537 118.353 813.315 118.758 812.311 119.158C807.869 111.501 802.621 104.26 796.167 97.8146C794.143 103.044 790.518 107.883 786.482 111.704C787.288 113.929 787.288 113.929 787.892 115.338C788.495 116.746 789.098 118.758 789.504 119.964C788.896 121.17 788.089 122.589 787.486 123.795C785.473 121.373 783.45 118.956 781.437 116.544C780.428 115.941 779.414 115.338 778.405 114.729ZM805.451 67.4053L778.202 114.532L781.635 116.544L808.878 69.417L805.451 67.4053ZM805.856 67.2026C805.248 68.211 805.451 69.6197 806.257 70.02C807.063 70.4255 808.27 70.02 808.878 69.0168C809.482 68.0083 809.279 66.5996 808.473 66.189C807.666 65.7887 806.46 66.189 805.856 67.2026Z" stroke="black" stroke-width="0.244349" stroke-miterlimit="10" stroke-linecap="round" stroke-linejoin="round"/>
<mask id="mask0_0_1" style="mask-type:luminance" maskUnits="userSpaceOnUse" x="36" y="31" width="795" height="396">
<path d="M36.3329 31.0026H830.094V426.063H36.3329V31.0026Z" fill="white"/>
</mask>
<g mask="url(#mask0_0_1)">
<path d="M49.0444 559.203C49.0444 562.624 46.4179 565.238 42.9903 565.238C39.5576 565.238 36.9311 562.624 36.9311 559.203C36.9311 555.773 39.5576 553.158 42.9903 553.158C46.4179 553.158 49.0444 555.773 49.0444 559.203ZM824.013 31.5588C820.586 31.5588 817.959 34.1735 817.959 37.5939C817.959 41.0247 820.586 43.6393 824.013 43.6393C827.446 43.6393 830.073 41.0247 830.073 37.5939C830.073 34.1735 827.243 31.5588 824.013 31.5588Z" fill="#DF8612"/>
</g>
<mask id="mask1_0_1" style="mask-type:luminance" maskUnits="userSpaceOnUse" x="36" y="30" width="795" height="397">
<path d="M36.3277 30.8727H830.676V426.063H36.3277V30.8727Z" fill="white"/>
</mask>
<g mask="url(#mask1_0_1)">
<path d="M49.0444 559.203C49.0444 562.624 46.4179 565.239 42.9903 565.239C39.5576 565.239 36.9311 562.624 36.9311 559.203C36.9311 555.773 39.5576 553.158 42.9903 553.158C46.4179 553.158 49.0444 555.773 49.0444 559.203ZM824.013 31.5588C820.586 31.5588 817.959 34.1735 817.959 37.5939C817.959 41.0195 820.586 43.6393 824.013 43.6393C827.446 43.6393 830.073 41.0195 830.073 37.5939C830.073 34.1735 827.243 31.5588 824.013 31.5588Z" stroke="black" stroke-width="1.12078" stroke-miterlimit="10" stroke-linecap="round"/>
</g>
<path d="M190.494 145.554L210.845 69.1363L225.284 14.2073H208.682L198.576 78.7997L185.584 127.813L159.022 14.2073H135.924L166.818 145.695L190.494 145.554Z" fill="#0C7666"/>
<path d="M247.071 26.3139C254.15 26.3139 259.923 20.3984 259.923 13.4796C259.923 6.26976 254.15 0.505005 247.071 0.505005C239.998 0.505005 234.084 6.26976 234.084 13.4796C234.084 20.3984 239.998 26.3139 247.071 26.3139ZM258.618 145.695V36.5491H235.519V145.695H258.618Z" fill="#0C7666"/>
<path d="M323.871 34.5374C310.733 34.5374 295.571 39.5848 283.879 49.0922L286.771 66.8335H293.267C297.308 51.9772 308.569 43.7641 317.52 43.7641C324.011 43.7641 329.503 48.2241 329.503 57.6068V66.1058C308.569 78.94 271.319 72.7386 271.319 116.138C271.319 136.468 283.739 147.717 302.073 147.717C311.742 147.717 322.279 142.955 329.503 130.412V145.695H352.601V57.7419C352.601 41.8824 339.749 34.5374 323.871 34.5374ZM308.132 136.037C300.195 136.037 294.427 128.39 294.427 113.976C294.427 82.9842 310.296 84.8556 329.503 73.7523V117.578C323.871 128.967 315.637 136.037 308.132 136.037Z" fill="#0C7666"/>
<path d="M415.675 131.28C436.61 128.104 451.334 113.399 451.334 84.2785C451.334 63.7978 444.115 49.9603 432.563 42.1735C438.622 41.742 444.983 39.1481 447.865 32.3645L441.941 19.8318H437.327C437.327 26.4594 432.131 34.9636 424.767 38.28C419.285 36.1176 413.22 35.1143 406.573 35.1143C378.284 35.1143 361.823 51.1143 361.823 84.2785C361.823 111.236 372.802 125.942 392 130.412C389.399 130.703 386.799 130.989 384.203 131.421V140.798C388.531 140.221 392.717 139.93 396.613 139.93C413.361 139.93 424.917 145.409 424.917 158.238C424.917 170.059 415.384 176.697 404.41 176.697C392.14 176.697 377.707 168.187 372.802 148.871H366.878L364.855 169.768C367.747 174.238 380.885 185.632 405.138 185.632C434.009 185.632 447.433 172.226 447.433 158.669C447.433 142.81 433.286 134.306 415.675 131.28ZM406.573 43.0415C419.862 43.0415 428.236 56.7387 428.236 84.2785C428.236 111.527 419.862 123.92 406.573 123.92C391.131 123.92 384.921 111.527 384.921 84.2785C384.921 56.7387 391.131 43.0415 406.573 43.0415Z" fill="#0C7666"/>
<path d="M538.234 111.236C532.461 129.835 521.486 138.776 510.658 138.776C499.397 138.776 488.282 129.118 483.513 110.514H486.405C519.323 110.514 548.048 91.9146 548.048 64.6659C548.048 49.0922 536.497 34.3866 509.212 34.3866C480.632 34.3866 457.965 55.0077 457.965 89.1752C457.965 128.255 481.641 147.717 508.057 147.717C526.968 147.717 543.284 138.485 548.048 129.258L545.162 111.236H538.234ZM510.372 42.7504C519.749 42.7504 527.837 49.6692 527.837 66.3969C527.837 82.6931 516.29 102.586 482.072 103.304C481.349 98.9841 481.063 94.2226 481.063 89.1752C481.063 59.9044 496.225 42.7504 510.372 42.7504Z" fill="#0C7666"/>
<path d="M639.416 62.072C639.416 42.9012 629.596 34.6777 617.332 34.6777C604.912 34.6777 589.61 43.3274 579.796 57.456V36.549H556.698V145.695H579.796V70.7269C588.315 56.879 600.299 46.5035 608.095 46.5035C613.145 46.5035 616.469 50.5373 616.469 60.6321V145.695H639.562L639.416 62.072Z" fill="#0C7666"/>
<path d="M689.211 147.566C707.114 147.566 725.016 137.908 726.176 118.155C726.316 117.001 726.316 115.707 726.316 114.553C724.73 81.5391 669.296 71.5846 669.296 54.1396C669.296 46.3528 675.933 41.8823 683.729 41.8823C694.126 41.8823 707.55 49.9603 712.018 67.1246H720.252L723.143 51.2598C716.356 40.3021 700.763 34.3866 686.33 34.3866C669.146 34.3866 652.117 42.9012 652.117 60.6321C652.117 61.7861 652.117 62.7894 652.258 64.0889C655.576 91.7743 706.973 97.825 708.268 122.625C708.991 134.155 700.903 140.07 692.103 140.07C680.838 140.07 667.133 130.267 662.504 110.373H654.572L651.68 127.813C659.336 140.939 674.487 147.566 689.211 147.566Z" fill="#0C7666"/>
<path d="M0.0136414 292.891L41.5652 174.971H50.6723L92.7492 292.891H84.1986L71.4143 255.418H20.9949L8.21057 292.891H0.0136414ZM23.2053 248.769H69.0322L45.9081 181.692L23.2053 248.769Z" fill="#16695C"/>
<path d="M117.22 166.014H124.544V292.891H117.22V166.014Z" fill="#16695C"/>
<path d="M213.28 292.891V277.884C207.413 283.295 201.894 287.594 196.709 290.76C191.539 293.926 186.483 295.516 181.537 295.516C176.815 295.516 172.961 294.799 169.975 293.385C166.979 291.981 164.634 289.913 162.933 287.152C161.227 284.408 160.041 281.024 159.396 277.006C158.736 273.003 158.413 268.418 158.413 263.256V203.524H165.736V262.066C165.736 267.623 166.054 272.135 166.683 275.607C167.312 279.064 168.274 281.793 169.59 283.794C170.896 285.78 172.55 287.137 174.563 287.854C176.596 288.556 178.978 288.904 181.714 288.904C190.28 288.904 200.807 282.677 213.28 270.217V203.524H220.603V292.891H213.28Z" fill="#16695C"/>
<path d="M313.567 277.884C310.665 283.857 306.873 288.291 302.182 291.181C297.485 294.066 291.608 295.516 284.555 295.516C277.846 295.516 272.234 294.31 267.704 291.914C263.194 289.518 259.575 286.201 256.844 281.975C254.113 277.733 252.158 272.753 250.993 267.035C249.817 261.323 249.24 255.173 249.24 248.592C249.24 241.315 249.88 234.739 251.17 228.86C252.449 222.981 254.498 217.996 257.302 213.884C260.121 209.752 263.782 206.57 268.266 204.33C272.77 202.09 278.2 200.972 284.555 200.972C291.093 200.972 296.58 202.407 301.022 205.276C305.453 208.146 309.302 212.642 312.548 218.745L306.421 222.071C305.105 219.535 303.737 217.331 302.317 215.459C300.892 213.567 299.29 212.018 297.522 210.802C295.769 209.57 293.808 208.66 291.634 208.073C289.481 207.47 287.016 207.163 284.243 207.163C274.965 207.163 268.089 210.557 263.605 217.346C259.138 224.135 256.912 234.719 256.912 249.086C256.912 255.34 257.421 260.948 258.456 265.913C259.481 270.882 261.098 275.098 263.325 278.544C265.54 281.975 268.406 284.616 271.912 286.456C275.412 288.301 279.625 289.221 284.555 289.221C287.796 289.221 290.62 288.852 293.002 288.098C295.4 287.329 297.496 286.269 299.269 284.917C301.069 283.54 302.619 281.939 303.929 280.119C305.235 278.3 306.462 276.34 307.612 274.24L313.567 277.884Z" fill="#16695C"/>
<path d="M348.955 182.633C348.955 185.014 348.482 186.625 347.556 187.462C346.615 188.283 345.075 188.689 342.927 188.689C340.592 188.689 338.98 188.164 338.096 187.114C337.201 186.064 336.764 184.577 336.764 182.633C336.764 180.533 337.227 178.994 338.163 178.017C339.12 177.019 340.706 176.51 342.927 176.51C345.19 176.51 346.755 176.983 347.624 177.913C348.508 178.849 348.955 180.424 348.955 182.633ZM339.25 292.891V203.524H346.573V292.891H339.25Z" fill="#16695C"/>
<path d="M434.633 292.891V234.459C434.633 228.928 434.316 224.431 433.687 220.949C433.057 217.45 432.085 214.711 430.779 212.725C429.463 210.724 427.799 209.367 425.765 208.671C423.752 207.969 421.386 207.62 418.655 207.62C414.401 207.62 409.657 209.138 404.43 212.169C399.193 215.205 393.414 219.899 387.09 226.271V292.891H379.767V203.524H387.09V218.604C390.174 215.693 393.097 213.146 395.885 210.979C398.657 208.79 401.346 206.945 403.941 205.448C406.532 203.935 409.091 202.817 411.613 202.09C414.151 201.346 416.736 200.972 419.357 200.972C423.955 200.972 427.71 201.689 430.639 203.103C433.583 204.507 435.876 206.596 437.541 209.367C439.22 212.122 440.375 215.511 441.01 219.514C441.639 223.506 441.951 228.08 441.951 233.232V292.891H434.633Z" fill="#16695C"/>
<path d="M525.039 292.891V278.056C522.251 280.629 519.583 282.983 517.013 285.125C514.439 287.251 511.875 289.081 509.305 290.62C506.757 292.143 504.12 293.323 501.389 294.185C498.659 295.069 495.73 295.516 492.631 295.516C488.402 295.516 484.803 294.903 481.838 293.697C478.894 292.491 476.481 290.708 474.588 288.343C472.716 285.993 471.337 283.087 470.453 279.631C469.585 276.158 469.158 272.202 469.158 267.768C469.158 263.901 469.611 260.309 470.526 256.993C471.436 253.661 473.23 250.718 475.919 248.177C478.624 245.609 482.436 243.451 487.341 241.7C492.261 239.932 498.711 238.674 506.679 237.921L525.039 236.138V231.449C525.039 227.374 524.664 223.813 523.915 220.777C523.192 217.721 521.892 215.194 520.03 213.183C518.178 211.181 515.718 209.674 512.634 208.671C509.571 207.672 505.743 207.163 501.145 207.163C497.447 207.163 494.279 207.48 491.616 208.109C488.969 208.738 486.717 209.596 484.855 210.661C482.977 211.737 481.417 213.006 480.158 214.477C478.894 215.927 477.787 217.471 476.83 219.098L471.467 215.594C472.82 213.338 474.359 211.29 476.096 209.471C477.844 207.652 479.877 206.134 482.192 204.891C484.522 203.628 487.242 202.667 490.353 201.986C493.452 201.31 497.052 200.972 501.145 200.972C506.934 200.972 511.812 201.58 515.791 202.791C519.786 204.008 523.005 205.895 525.46 208.457C527.91 211.004 529.673 214.233 530.749 218.152C531.816 222.071 532.362 226.739 532.362 232.145V292.891H525.039ZM525.039 242.438L507.1 244.257C500.864 244.865 495.782 245.775 491.861 246.986C487.934 248.177 484.86 249.705 482.644 251.566C480.424 253.442 478.894 255.677 478.057 258.287C477.235 260.902 476.83 263.948 476.83 267.42C476.83 275.03 478.094 280.566 480.616 284.039C483.154 287.495 487.325 289.221 493.119 289.221C495.101 289.221 497.046 289.008 498.94 288.587C500.848 288.171 502.986 287.293 505.347 285.967C507.729 284.616 510.47 282.739 513.581 280.332C516.706 277.91 520.529 274.713 525.039 270.742V242.438Z" fill="#16695C"/>
<path d="M619.813 292.891V234.459C619.813 228.928 619.501 224.431 618.866 220.949C618.237 217.45 617.265 214.711 615.959 212.725C614.648 210.724 612.984 209.367 610.95 208.671C608.938 207.969 606.571 207.62 603.84 207.62C599.581 207.62 594.843 209.138 589.615 212.169C584.378 215.205 578.594 219.899 572.27 226.271V292.891H564.947V203.524H572.27V218.604C575.354 215.693 578.282 213.146 581.065 210.979C583.842 208.79 586.531 206.945 589.121 205.448C591.717 203.935 594.276 202.817 596.798 202.09C599.336 201.346 601.921 200.972 604.537 200.972C609.135 200.972 612.896 201.689 615.819 203.103C618.762 204.507 621.056 206.596 622.72 209.367C624.406 212.122 625.56 215.511 626.19 219.514C626.819 223.506 627.136 228.08 627.136 233.232V292.891H619.813Z" fill="#16695C"/>
<path d="M699.468 292.543C697.476 293.333 695.193 294.019 692.597 294.607C690.007 295.21 687.256 295.516 684.364 295.516C679.995 295.516 676.396 295.002 673.577 293.978C670.747 292.974 668.532 291.337 666.919 289.045C665.307 286.737 664.168 283.69 663.518 279.911C662.863 276.132 662.54 271.459 662.54 265.882V210.173H648.352V203.524H662.54V178.646H669.863V203.524H694.527V210.173H669.863V266.053C669.863 270.768 670.082 274.63 670.529 277.635C670.992 280.644 671.788 283.009 672.911 284.704C674.05 286.409 675.553 287.594 677.431 288.239C679.319 288.894 681.685 289.221 684.541 289.221C685.565 289.221 686.678 289.148 687.87 289.008C689.061 288.868 690.236 288.675 691.406 288.416C692.571 288.161 693.695 287.88 694.771 287.573C695.838 287.251 696.81 286.929 697.679 286.596L699.468 292.543Z" fill="#16695C"/>
<path d="M724.007 246.461C724.007 254.466 724.444 261.208 725.338 266.682C726.222 272.171 727.653 276.579 729.613 279.911C731.574 283.228 734.149 285.609 737.353 287.048C740.577 288.504 744.52 289.221 749.196 289.221C751.931 289.221 754.418 289.003 756.659 288.556C758.901 288.093 761.002 287.319 762.968 286.243C764.929 285.177 766.76 283.742 768.466 281.939C770.166 280.145 771.846 277.915 773.511 275.259L779.154 279.106C777.609 281.653 775.94 283.935 774.14 285.967C772.335 287.979 770.26 289.689 767.904 291.108C765.543 292.532 762.843 293.608 759.811 294.362C756.774 295.132 753.237 295.516 749.196 295.516C743.61 295.516 738.757 294.684 734.622 293.031C730.508 291.404 727.096 288.748 724.392 285.058C721.703 281.372 719.679 276.569 718.332 270.638C717.001 264.691 716.335 257.466 716.335 248.946C716.335 240.92 716.975 233.897 718.259 227.878C719.539 221.858 721.552 216.873 724.288 212.902C727.018 208.915 730.508 205.931 734.763 203.945C739.038 201.97 744.161 200.972 750.142 200.972C760.721 200.972 768.513 204.294 773.511 210.942C778.504 217.575 781.011 227.389 781.011 240.405V246.461H724.007ZM773.688 240.229C773.563 234.1 772.996 228.928 771.971 224.728C770.936 220.533 769.449 217.138 767.483 214.55C765.522 211.956 763.088 210.084 760.196 208.915C757.299 207.75 753.944 207.163 750.142 207.163C745.7 207.163 741.883 207.818 738.684 209.123C735.506 210.438 732.88 212.439 730.805 215.142C728.719 217.856 727.122 221.281 726.004 225.429C724.901 229.557 724.236 234.49 724.007 240.229H773.688Z" fill="#16695C"/>
<path d="M861.883 271.095C861.883 274.828 861.305 278.196 860.166 281.206C859.022 284.215 857.259 286.794 854.877 288.941C852.495 291.067 849.41 292.683 845.629 293.801C841.843 294.939 837.308 295.516 832.034 295.516C827.358 295.516 823.327 294.991 819.946 293.941C816.555 292.891 813.71 291.581 811.396 289.991C809.102 288.405 807.271 286.7 805.898 284.881C804.541 283.061 803.526 281.414 802.85 279.948L808.982 276.096C809.84 277.915 810.928 279.615 812.238 281.169C813.544 282.739 815.12 284.091 816.966 285.229C818.807 286.378 820.945 287.277 823.379 287.927C825.834 288.582 828.653 288.904 831.857 288.904C835.477 288.904 838.707 288.623 841.562 288.062C844.412 287.485 846.784 286.523 848.677 285.193C850.586 283.846 852.037 282.037 853.02 279.771C854.019 277.515 854.528 274.661 854.528 271.236C854.528 268.533 854.211 266.188 853.582 264.202C852.968 262.196 851.767 260.413 849.972 258.848C848.167 257.289 845.66 255.854 842.441 254.544C839.232 253.24 835.081 251.872 829.969 250.448C824.851 249.102 820.622 247.683 817.283 246.217C813.965 244.725 811.344 242.994 809.435 241.034C807.542 239.075 806.215 236.782 805.44 234.142C804.671 231.511 804.286 228.288 804.286 224.483C804.286 221.526 804.827 218.641 805.934 215.844C807.053 213.027 808.753 210.505 811.047 208.286C813.362 206.071 816.305 204.294 819.879 202.963C823.467 201.637 827.743 200.972 832.699 200.972C836.735 200.972 840.231 201.414 843.174 202.298C846.134 203.166 848.693 204.32 850.846 205.765C853.02 207.215 854.825 208.915 856.276 210.875C857.722 212.834 858.96 214.862 859.99 216.962L853.686 220.283C851.512 215.86 848.833 212.642 845.66 210.63C842.483 208.624 838.28 207.62 833.048 207.62C829.407 207.62 826.234 208.031 823.556 208.842C820.893 209.663 818.667 210.828 816.898 212.34C815.146 213.837 813.825 215.626 812.94 217.695C812.072 219.779 811.645 222.097 811.645 224.66C811.645 227.322 811.869 229.609 812.342 231.516C812.836 233.409 813.814 235.077 815.286 236.522C816.774 237.973 818.88 239.277 821.595 240.442C824.326 241.611 827.909 242.822 832.351 244.08C838.675 245.785 843.752 247.527 847.59 249.294C851.418 251.041 854.393 252.969 856.526 255.069C858.668 257.169 860.099 259.514 860.796 262.102C861.513 264.691 861.883 267.69 861.883 271.095Z" fill="#16695C"/>
</svg>
